<?xml version="1.0" encoding="UTF-8" standalone="no"?>
<!DOCTYPE svg PUBLIC "-//W3C//DTD SVG 1.1//EN" "http://www.w3.org/Graphics/SVG/1.1/DTD/svg11.dtd">
<svg width="100%" height="100%" viewBox="0 0 270 160" version="1.1" xmlns="http://www.w3.org/2000/svg" xmlns:xlink="http://www.w3.org/1999/xlink" xml:space="preserve" xmlns:serif="http://www.serif.com/" style="fill-rule:evenodd;clip-rule:evenodd;stroke-linecap:round;stroke-linejoin:round;stroke-miterlimit:1.5;">
    <g transform="matrix(1,0,0,1,-72.5568,-215.955)">
        <g transform="matrix(0.229936,0,0,0.229936,23.8725,240.622)">
            <path d="M300,34.469C311.654,34.283 335.739,35.502 335.739,35.502C335.739,35.502 332.453,140.766 369.373,200.248C384.969,225.375 382.369,258.957 385.835,300C389.301,341.043 370.281,443.364 372.88,463.292C375.48,483.22 389.301,514.328 387.568,534.256C385.835,554.183 382.871,582.107 340.781,583.642C325.977,584.182 315.739,584.517 308.659,584.72L308.659,584.946C308.659,584.946 309.44,585.118 300.776,584.926C292.113,585.118 292.893,584.946 292.893,584.946L292.893,584.72C285.814,584.517 275.576,584.182 260.772,583.642C218.681,582.107 215.718,554.183 213.985,534.256C212.252,514.328 226.073,483.22 228.672,463.292C231.272,443.364 212.252,341.043 215.718,300C219.183,258.957 216.584,225.375 232.18,200.248C269.1,140.766 265.814,36.619 265.814,36.619C265.814,36.619 288.583,34.652 300,34.469Z" style="fill:rgb(24,183,190);stroke:rgb(7,42,64);stroke-width:4.21px;"/>
        </g>
        <g transform="matrix(0.229936,0,0,0.229936,138.932,240.622)">
            <path d="M300,34.469C311.654,34.283 335.739,35.502 335.739,35.502C335.739,35.502 332.453,140.766 369.373,200.248C384.969,225.375 382.369,258.957 385.835,300C389.301,341.043 370.281,443.364 372.88,463.292C375.48,483.22 389.301,514.328 387.568,534.256C385.835,554.183 382.871,582.107 340.781,583.642C325.977,584.182 315.739,584.517 308.659,584.72L308.659,584.946C308.659,584.946 309.44,585.118 300.776,584.926C292.113,585.118 292.893,584.946 292.893,584.946L292.893,584.72C285.814,584.517 275.576,584.182 260.772,583.642C218.681,582.107 215.718,554.183 213.985,534.256C212.252,514.328 226.073,483.22 228.672,463.292C231.272,443.364 212.252,341.043 215.718,300C219.183,258.957 216.584,225.375 232.18,200.248C269.1,140.766 265.814,36.619 265.814,36.619C265.814,36.619 288.583,34.652 300,34.469Z" style="fill:rgb(24,183,190);stroke:rgb(7,42,64);stroke-width:4.21px;"/>
        </g>
        <g transform="matrix(0.229936,0,0,0.229936,252.394,240.622)">
            <path d="M300,34.469C311.654,34.283 335.739,35.502 335.739,35.502C335.739,35.502 332.453,140.766 369.373,200.248C384.969,225.375 382.369,258.957 385.835,300C389.301,341.043 370.281,443.364 372.88,463.292C375.48,483.22 389.301,514.328 387.568,534.256C385.835,554.183 382.871,582.107 340.781,583.642C325.977,584.182 315.739,584.517 308.659,584.72L308.659,584.946C308.659,584.946 309.44,585.118 300.776,584.926C292.113,585.118 292.893,584.946 292.893,584.946L292.893,584.72C285.814,584.517 275.576,584.182 260.772,583.642C218.681,582.107 215.718,554.183 213.985,534.256C212.252,514.328 226.073,483.22 228.672,463.292C231.272,443.364 212.252,341.043 215.718,300C219.183,258.957 216.584,225.375 232.18,200.248C269.1,140.766 265.814,36.619 265.814,36.619C265.814,36.619 288.583,34.652 300,34.469Z" style="fill:rgb(24,183,190);stroke:rgb(7,42,64);stroke-width:4.21px;"/>
        </g>
        <g transform="matrix(0.292123,0,0,0.271231,61.8991,216.463)">
            <path d="M300,34.469C311.654,34.283 335.739,35.502 335.739,35.502C335.739,35.502 332.453,140.766 369.373,200.248C384.969,225.375 382.369,258.957 385.835,300C389.301,341.043 389.301,514.328 387.568,534.256C385.835,554.183 382.871,582.107 340.781,583.642C325.977,584.182 315.739,584.517 308.659,584.72L308.659,584.946C308.659,584.946 309.44,585.118 300.776,584.926C292.113,585.118 292.893,584.946 292.893,584.946L292.893,584.72C285.814,584.517 275.576,584.182 260.772,583.642C218.681,582.107 215.718,554.183 213.985,534.256C212.252,514.328 212.252,341.043 215.718,300C219.183,258.957 216.584,225.375 232.18,200.248C269.1,140.766 265.814,36.619 265.814,36.619C265.814,36.619 288.583,34.652 300,34.469Z" style="fill:rgb(24,183,190);stroke:rgb(7,42,64);stroke-width:3.43px;"/>
        </g>
        <g transform="matrix(0.292123,0,0,0.271231,176.959,216.463)">
            <path d="M300,34.469C311.654,34.283 335.739,35.502 335.739,35.502C335.739,35.502 332.453,140.766 369.373,200.248C384.969,225.375 382.369,258.957 385.835,300C389.301,341.043 389.301,514.328 387.568,534.256C385.835,554.183 382.871,582.107 340.781,583.642C325.977,584.182 315.739,584.517 308.659,584.72L308.659,584.946C308.659,584.946 309.44,585.118 300.776,584.926C292.113,585.118 292.893,584.946 292.893,584.946L292.893,584.72C285.814,584.517 275.576,584.182 260.772,583.642C218.681,582.107 215.718,554.183 213.985,534.256C212.252,514.328 212.252,341.043 215.718,300C219.183,258.957 216.584,225.375 232.18,200.248C269.1,140.766 265.814,36.619 265.814,36.619C265.814,36.619 288.583,34.652 300,34.469Z" style="fill:rgb(24,183,190);stroke:rgb(7,42,64);stroke-width:3.43px;"/>
        </g>
        <g transform="matrix(0.827451,0,0,0.762941,16.2423,60.8769)">
            <path d="M104.386,246C104.386,244.224 103.057,242.782 101.419,242.782L84.186,242.782C82.548,242.782 81.219,244.224 81.219,246L81.219,252.435C81.219,254.211 82.548,255.653 84.186,255.653L101.419,255.653C103.057,255.653 104.386,254.211 104.386,252.435L104.386,246Z" style="fill:rgb(235,235,235);stroke:rgb(7,42,64);stroke-width:1.22px;"/>
        </g>
        <g transform="matrix(0.827451,0,0,0.762941,131.302,60.8769)">
            <path d="M104.386,246C104.386,244.224 103.057,242.782 101.419,242.782L84.186,242.782C82.548,242.782 81.219,244.224 81.219,246L81.219,252.435C81.219,254.211 82.548,255.653 84.186,255.653L101.419,255.653C103.057,255.653 104.386,254.211 104.386,252.435L104.386,246Z" style="fill:rgb(235,235,235);stroke:rgb(7,42,64);stroke-width:1.22px;"/>
        </g>
        <g transform="matrix(0.827451,0,0,0.762941,244.764,60.8769)">
            <path d="M104.386,246C104.386,244.224 103.057,242.782 101.419,242.782L84.186,242.782C82.548,242.782 81.219,244.224 81.219,246L81.219,252.435C81.219,254.211 82.548,255.653 84.186,255.653L101.419,255.653C103.057,255.653 104.386,254.211 104.386,252.435L104.386,246Z" style="fill:rgb(235,235,235);stroke:rgb(7,42,64);stroke-width:1.22px;"/>
        </g>
        <g transform="matrix(0.967811,0,0,1.03868,59.9476,-35.7332)">
            <path d="M104.386,246C104.386,244.224 102.839,242.782 100.933,242.782L84.672,242.782C82.766,242.782 81.219,244.224 81.219,246L81.219,252.435C81.219,254.211 82.766,255.653 84.672,255.653L100.933,255.653C102.839,255.653 104.386,254.211 104.386,252.435L104.386,246Z" style="fill:rgb(235,235,235);stroke:rgb(7,42,64);stroke-width:0.96px;"/>
        </g>
        <g transform="matrix(0.967811,0,0,1.03868,175.007,-35.7332)">
            <path d="M104.386,246C104.386,244.224 102.839,242.782 100.933,242.782L84.672,242.782C82.766,242.782 81.219,244.224 81.219,246L81.219,252.435C81.219,254.211 82.766,255.653 84.672,255.653L100.933,255.653C102.839,255.653 104.386,254.211 104.386,252.435L104.386,246Z" style="fill:rgb(235,235,235);stroke:rgb(7,42,64);stroke-width:0.96px;"/>
        </g>
        <g transform="matrix(1,0,0,1,0,1)">
            <path d="M98.875,266.832C99.644,266.601 101.414,277.066 102.617,280.731C103.887,284.601 105.169,286.386 106.077,290.02C107.258,294.741 108.083,309.562 107.909,318.104C107.75,325.884 105.335,336.123 105.032,341.271C104.888,343.713 106.243,353.839 106.697,355.808C107.152,357.776 103.114,357.381 102.617,356.11C101.658,353.659 100.644,345.179 100.944,341.102C101.246,336.982 103.811,323.531 103.876,317.565C103.931,312.531 103.381,295.997 102.617,291.303C102.102,288.147 98.824,279.19 98.521,276.616C98.218,274.041 97.957,267.108 98.875,266.832Z" style="fill:white;"/>
        </g>
        <g transform="matrix(1,0,0,1,115.06,1)">
            <path d="M98.875,266.832C99.644,266.601 101.414,277.066 102.617,280.731C103.887,284.601 105.169,286.386 106.077,290.02C107.258,294.741 108.083,309.562 107.909,318.104C107.75,325.884 105.335,336.123 105.032,341.271C104.888,343.713 106.243,353.839 106.697,355.808C107.152,357.776 103.114,357.381 102.617,356.11C101.658,353.659 100.644,345.179 100.944,341.102C101.246,336.982 103.811,323.531 103.876,317.565C103.931,312.531 103.381,295.997 102.617,291.303C102.102,288.147 98.824,279.19 98.521,276.616C98.218,274.041 97.957,267.108 98.875,266.832Z" style="fill:white;"/>
        </g>
        <g transform="matrix(1,0,0,1,228.522,1)">
            <path d="M98.875,266.832C99.644,266.601 101.414,277.066 102.617,280.731C103.887,284.601 105.169,286.386 106.077,290.02C107.258,294.741 108.083,309.562 107.909,318.104C107.75,325.884 105.335,336.123 105.032,341.271C104.888,343.713 106.243,353.839 106.697,355.808C107.152,357.776 103.114,357.381 102.617,356.11C101.658,353.659 100.644,345.179 100.944,341.102C101.246,336.982 103.811,323.531 103.876,317.565C103.931,312.531 103.381,295.997 102.617,291.303C102.102,288.147 98.824,279.19 98.521,276.616C98.218,274.041 97.957,267.108 98.875,266.832Z" style="fill:white;"/>
        </g>
        <g transform="matrix(-1,0,0,1,186.171,1)">
            <path d="M98.875,266.832C99.644,266.601 101.414,277.066 102.617,280.731C103.887,284.601 105.169,286.386 106.077,290.02C107.258,294.741 108.083,309.562 107.909,318.104C107.75,325.884 105.335,336.123 105.032,341.271C104.888,343.713 106.243,353.839 106.697,355.808C107.152,357.776 103.114,357.381 102.617,356.11C101.658,353.659 100.644,345.179 100.944,341.102C101.246,336.982 103.811,323.531 103.876,317.565C103.931,312.531 103.381,295.997 102.617,291.303C102.102,288.147 98.824,279.19 98.521,276.616C98.218,274.041 97.957,267.108 98.875,266.832Z" style="fill:rgb(23,140,164);"/>
        </g>
        <g transform="matrix(-1,0,0,1,301.231,1)">
            <path d="M98.875,266.832C99.644,266.601 101.414,277.066 102.617,280.731C103.887,284.601 105.169,286.386 106.077,290.02C107.258,294.741 108.083,309.562 107.909,318.104C107.75,325.884 105.335,336.123 105.032,341.271C104.888,343.713 106.243,353.839 106.697,355.808C107.152,357.776 103.114,357.381 102.617,356.11C101.658,353.659 100.644,345.179 100.944,341.102C101.246,336.982 103.811,323.531 103.876,317.565C103.931,312.531 103.381,295.997 102.617,291.303C102.102,288.147 98.824,279.19 98.521,276.616C98.218,274.041 97.957,267.108 98.875,266.832Z" style="fill:rgb(23,140,164);"/>
        </g>
        <g transform="matrix(-1,0,0,1,414.693,1)">
            <path d="M98.875,266.832C99.644,266.601 101.414,277.066 102.617,280.731C103.887,284.601 105.169,286.386 106.077,290.02C107.258,294.741 108.083,309.562 107.909,318.104C107.75,325.884 105.335,336.123 105.032,341.271C104.888,343.713 106.243,353.839 106.697,355.808C107.152,357.776 103.114,357.381 102.617,356.11C101.658,353.659 100.644,345.179 100.944,341.102C101.246,336.982 103.811,323.531 103.876,317.565C103.931,312.531 103.381,295.997 102.617,291.303C102.102,288.147 98.824,279.19 98.521,276.616C98.218,274.041 97.957,267.108 98.875,266.832Z" style="fill:rgb(23,140,164);"/>
        </g>
        <g transform="matrix(1.27045,0,0,1.1248,31.5701,-48.1121)">
            <path d="M98.875,266.832C99.644,266.601 101.414,277.066 102.617,280.731C103.887,284.601 105.169,286.386 106.077,290.02C107.258,294.741 108.083,309.562 107.909,318.104C107.75,325.884 107.959,353.985 107.959,356.019C107.959,358.054 104.688,357.381 104.191,356.11C103.232,353.659 103.811,323.531 103.876,317.565C103.931,312.531 103.381,295.997 102.617,291.303C102.102,288.147 98.824,279.19 98.521,276.616C98.218,274.041 97.957,267.108 98.875,266.832Z" style="fill:white;"/>
        </g>
        <g transform="matrix(1.27045,0,0,1.1248,146.63,-48.1121)">
            <path d="M98.875,266.832C99.644,266.601 101.414,277.066 102.617,280.731C103.887,284.601 105.169,286.386 106.077,290.02C107.258,294.741 108.083,309.562 107.909,318.104C107.75,325.884 107.959,353.985 107.959,356.019C107.959,358.054 104.688,357.381 104.191,356.11C103.232,353.659 103.811,323.531 103.876,317.565C103.931,312.531 103.381,295.997 102.617,291.303C102.102,288.147 98.824,279.19 98.521,276.616C98.218,274.041 97.957,267.108 98.875,266.832Z" style="fill:white;"/>
        </g>
        <g transform="matrix(-1.27045,0,0,1.1248,268.536,-48.1121)">
            <path d="M98.875,266.832C99.644,266.601 101.414,277.066 102.617,280.731C103.887,284.601 105.169,286.386 106.077,290.02C107.258,294.741 108.083,309.562 107.909,318.104C107.75,325.884 107.959,353.985 107.959,356.019C107.959,358.054 104.688,357.381 104.191,356.11C103.232,353.659 103.811,323.531 103.876,317.565C103.931,312.531 103.381,295.997 102.617,291.303C102.102,288.147 98.824,279.19 98.521,276.616C98.218,274.041 97.957,267.108 98.875,266.832Z" style="fill:rgb(23,140,164);"/>
        </g>
        <g transform="matrix(-1.27045,0,0,1.1248,383.596,-48.1121)">
            <path d="M98.875,266.832C99.644,266.601 101.414,277.066 102.617,280.731C103.887,284.601 105.169,286.386 106.077,290.02C107.258,294.741 108.083,309.562 107.909,318.104C107.75,325.884 107.959,353.985 107.959,356.019C107.959,358.054 104.688,357.381 104.191,356.11C103.232,353.659 103.811,323.531 103.876,317.565C103.931,312.531 103.381,295.997 102.617,291.303C102.102,288.147 98.824,279.19 98.521,276.616C98.218,274.041 97.957,267.108 98.875,266.832Z" style="fill:rgb(23,140,164);"/>
        </g>
    </g>
</svg>
