<?xml version="1.0" encoding="UTF-8" standalone="no"?>
<!DOCTYPE svg PUBLIC "-//W3C//DTD SVG 1.1//EN" "http://www.w3.org/Graphics/SVG/1.1/DTD/svg11.dtd">
<svg width="100%" height="100%" viewBox="0 0 414 360" version="1.1" xmlns="http://www.w3.org/2000/svg" xmlns:xlink="http://www.w3.org/1999/xlink" xml:space="preserve" xmlns:serif="http://www.serif.com/" style="fill-rule:evenodd;clip-rule:evenodd;stroke-linecap:round;stroke-linejoin:round;stroke-miterlimit:1.5;">
    <g transform="matrix(1,0,0,1,-80.3929,-134.637)">
        <g transform="matrix(0.310166,0,0,0.310166,75.4138,130.467)">
            <path d="M315.063,407.218C315.063,407.218 354.655,578.588 379.691,570.923C404.727,563.257 504.29,423.52 521.757,425.849C539.224,428.178 315.063,407.218 315.063,407.218Z" style="fill:rgb(23,140,164);"/>
            <path d="M521.944,434.901C520.988,435.498 518.223,437.276 516.07,439.112C510.275,444.051 502.97,451.642 494.759,460.727C468.909,489.333 434.601,532.33 410.321,557.403C398.464,569.648 388.324,577.667 382.319,579.505C377.873,580.866 373.113,580.207 368.316,576.88C364.285,574.085 359.854,568.762 355.573,561.313C332.235,520.699 306.317,409.238 306.317,409.238C305.668,406.429 306.408,403.48 308.306,401.309C310.203,399.139 313.028,398.012 315.898,398.281C315.898,398.281 495.563,415.082 520.509,416.914C521.405,416.836 522.221,416.856 522.944,416.952C527.373,417.543 529.065,419.652 529.236,419.832C531.418,422.131 531.827,424.568 531.681,426.643C531.518,428.971 530.674,432.16 526.607,434.112C526.456,434.185 524.862,434.821 521.944,434.901ZM520.444,425.909C497.846,424.309 315.063,407.218 315.063,407.218C315.063,407.218 354.655,578.588 379.691,570.923C404.159,563.431 499.808,429.796 520.444,425.909ZM520.444,425.909C522.872,426.082 523.452,426.075 521.757,425.849C521.361,425.796 520.922,425.817 520.444,425.909Z" style="fill:rgb(7,42,64);"/>
        </g>
        <g transform="matrix(0.310166,0,0,0.310166,75.4138,130.467)">
            <path d="M762.195,444.193C762.195,444.193 725.806,603.398 683.73,618.182C661.23,626.087 672.046,577.98 639.915,571.172C611.96,565.25 550.982,587.574 546.22,571.172C535.986,535.92 682.593,433.958 682.593,433.958L762.195,444.193Z" style="fill:rgb(23,140,164);"/>
            <path d="M770.946,446.193C771.51,443.725 771.005,441.134 769.557,439.057C768.109,436.981 765.851,435.613 763.34,435.29L683.737,425.055C681.53,424.772 679.295,425.318 677.468,426.589C677.468,426.589 604.729,477.225 564.627,519.836C553.681,531.467 545.128,542.611 540.669,552.062C536.774,560.317 535.87,567.715 537.6,573.675C538.884,578.096 541.779,581.45 546.353,583.625C550.375,585.538 556.293,586.45 563.512,586.259C576.523,585.914 594.822,582.269 611.674,580.285C621.624,579.114 631.005,578.46 638.055,579.953C646.384,581.718 650.458,587.613 653.333,593.816C655.899,599.352 657.581,605.244 659.443,610.179C662.278,617.693 666.018,623.3 670.876,625.952C674.963,628.183 680.037,628.993 686.705,626.65C692.974,624.448 699.272,619.841 705.272,613.126C712.983,604.495 720.437,592.185 727.312,577.994C752.815,525.348 770.946,446.193 770.946,446.193ZM762.195,444.193C762.195,444.193 725.806,603.398 683.73,618.182C661.23,626.087 672.046,577.98 639.915,571.172C611.96,565.25 550.982,587.574 546.22,571.172C535.986,535.92 682.593,433.958 682.593,433.958L762.195,444.193Z" style="fill:rgb(7,42,64);"/>
        </g>
        <g transform="matrix(0.310166,0,0,0.310166,75.4138,130.467)">
            <path d="M993.044,369.422C993.044,369.422 1114.51,378.12 1007.61,464.177C927.309,528.827 822.252,446.751 822.252,446.751L993.044,369.422Z" style="fill:rgb(23,140,164);"/>
            <path d="M993.685,360.469C992.195,360.363 990.702,360.629 989.342,361.245L818.55,438.574C815.689,439.869 813.713,442.566 813.34,445.685C812.967,448.803 814.251,451.89 816.726,453.824C816.726,453.824 856.201,484.67 905.887,494.768C939.989,501.698 978.724,498.958 1013.24,471.169C1035.99,452.853 1048.85,437.673 1055.14,425.358C1062.86,410.243 1061.66,398.422 1056.48,389.238C1050.75,379.068 1039.17,371.948 1026.99,367.562C1010.65,361.68 993.685,360.469 993.685,360.469ZM993.044,369.422C993.044,369.422 1114.51,378.12 1007.61,464.177C927.309,528.827 822.252,446.751 822.252,446.751L993.044,369.422Z" style="fill:rgb(7,42,64);"/>
        </g>
        <g transform="matrix(0.310166,0,0,0.310166,75.4138,130.467)">
            <path d="M734.765,122.286C734.765,122.286 638.697,3.279 602.388,19.439C585.338,27.028 548.631,127.062 524.75,145.257C500.869,163.452 357.675,280.127 357.675,280.127L734.765,122.286Z" style="fill:rgb(23,140,164);stroke:rgb(7,42,64);stroke-width:8.98px;"/>
        </g>
        <g transform="matrix(0.310166,0,0,0.310166,75.4138,130.467)">
            <path d="M1170.18,243.585C1170.18,243.585 933.446,111.5 813.108,103.711C668.636,94.36 409.457,230.95 354.823,264.054C287.091,305.094 237.693,266.328 151.267,235.625C64.841,204.921 26.177,200.372 25.04,212.881C24.01,224.206 95.545,303.856 95.545,350.48C95.545,389.211 11.992,537.115 39.823,568.82C59.042,590.713 203.578,434.632 293.415,427.809C333.536,424.761 409.716,456.898 501.946,474.982C616.234,497.391 754.558,503.703 872.242,459.65C1084.89,380.047 1156.54,341.383 1172.46,328.874C1188.38,316.365 1173.6,310.679 1171.32,290.209C1169.05,269.74 1170.18,243.585 1170.18,243.585Z" style="fill:rgb(24,183,190);"/>
            <path d="M1179.15,243.975C1179.3,240.584 1177.52,237.4 1174.56,235.746C1174.56,235.746 935.262,102.623 813.688,94.754C754.897,90.949 677.389,110.679 602.041,138.145C490.243,178.898 383.16,236.39 350.172,256.378C312.257,279.351 280.481,275.176 243.726,262.248C217.469,253.013 188.832,239.445 154.272,227.167C91.96,205.029 53.659,196.464 35.941,197.514C22.099,198.334 16.741,205.022 16.101,212.068C15.918,214.083 16.384,217.329 18.317,221.386C20.725,226.439 25.859,234.278 32.406,243.851C44.625,261.72 61.968,286.158 73.865,309.807C81.206,324.399 86.569,338.581 86.569,350.48C86.569,360.689 80.096,378.866 71.791,400.532C58.451,435.336 39.992,478.346 30.908,512.702C26.75,528.428 24.568,542.476 25.325,553.396C25.952,562.442 28.61,569.651 33.078,574.741C36.392,578.517 41.224,580.513 47.799,579.739C53.219,579.1 60.634,576.12 69.471,570.972C99.378,553.547 149.932,510.153 201.142,477.024C233.772,455.915 266.547,438.851 294.095,436.759C309.412,435.595 330.206,439.997 355.314,446.572C394.923,456.944 444.673,472.899 500.219,483.79C616.014,506.494 756.153,512.69 875.389,468.056C1089.82,387.788 1161.95,348.545 1178,335.932C1183.93,331.278 1186.67,327.001 1187.88,323.114C1189.29,318.622 1188.87,314.262 1187.16,309.494C1185.35,304.442 1181.28,298.545 1180.24,289.218C1178.04,269.355 1179.15,243.975 1179.15,243.975ZM1170.18,243.585C1170.18,243.585 933.446,111.5 813.108,103.711C668.636,94.36 409.457,230.95 354.823,264.054C287.091,305.094 237.693,266.328 151.267,235.625C64.841,204.921 26.177,200.372 25.04,212.881C24.01,224.206 95.545,303.856 95.545,350.48C95.545,389.211 11.992,537.115 39.823,568.82C59.042,590.713 203.578,434.632 293.415,427.809C333.536,424.761 409.716,456.898 501.946,474.982C616.234,497.391 754.558,503.703 872.242,459.65C1084.89,380.047 1156.54,341.383 1172.46,328.874C1188.38,316.365 1173.6,310.679 1171.32,290.209C1169.05,269.74 1170.18,243.585 1170.18,243.585Z" style="fill:rgb(7,42,64);"/>
        </g>
        <g transform="matrix(0.310166,0,0,0.310166,75.4138,130.467)">
            <path d="M1170.18,243.585C1170.18,243.585 933.446,111.5 813.108,103.711C668.636,94.36 409.457,230.95 354.823,264.054C287.091,305.094 237.693,266.328 151.267,235.625C64.841,204.921 26.177,200.372 25.04,212.881C24.01,224.206 95.545,303.856 95.545,350.48C95.545,389.211 11.992,537.115 39.823,568.82C59.042,590.713 203.578,434.632 293.415,427.809C333.536,424.761 409.716,456.898 501.946,474.982C616.234,497.391 754.558,503.703 872.242,459.65C1084.89,380.047 1156.54,341.383 1172.46,328.874C1188.38,316.365 1173.6,310.679 1171.32,290.209C1169.05,269.74 1170.18,243.585 1170.18,243.585Z" style="fill:rgb(24,183,190);"/>
            <path d="M1179.15,243.975C1179.3,240.584 1177.52,237.4 1174.56,235.746C1174.56,235.746 935.262,102.623 813.688,94.754C754.897,90.949 677.389,110.679 602.041,138.145C490.243,178.898 383.16,236.39 350.172,256.378C312.257,279.351 280.481,275.176 243.726,262.248C217.469,253.013 188.832,239.445 154.272,227.167C91.96,205.029 53.659,196.464 35.941,197.514C22.099,198.334 16.741,205.022 16.101,212.068C15.918,214.083 16.384,217.329 18.317,221.386C20.725,226.439 25.859,234.278 32.406,243.851C44.625,261.72 61.968,286.158 73.865,309.807C81.206,324.399 86.569,338.581 86.569,350.48C86.569,360.689 80.096,378.866 71.791,400.532C58.451,435.336 39.992,478.346 30.908,512.702C26.75,528.428 24.568,542.476 25.325,553.396C25.952,562.442 28.61,569.651 33.078,574.741C36.392,578.517 41.224,580.513 47.799,579.739C53.219,579.1 60.634,576.12 69.471,570.972C99.378,553.547 149.932,510.153 201.142,477.024C233.772,455.915 266.547,438.851 294.095,436.759C309.412,435.595 330.206,439.997 355.314,446.572C394.923,456.944 444.673,472.899 500.219,483.79C616.014,506.494 756.153,512.69 875.389,468.056C1089.82,387.788 1161.95,348.545 1178,335.932C1183.93,331.278 1186.67,327.001 1187.88,323.114C1189.29,318.622 1188.87,314.262 1187.16,309.494C1185.35,304.442 1181.28,298.545 1180.24,289.218C1178.04,269.355 1179.15,243.975 1179.15,243.975ZM1170.18,243.585C1170.18,243.585 933.446,111.5 813.108,103.711C668.636,94.36 409.457,230.95 354.823,264.054C287.091,305.094 237.693,266.328 151.267,235.625C64.841,204.921 26.177,200.372 25.04,212.881C24.01,224.206 95.545,303.856 95.545,350.48C95.545,389.211 11.992,537.115 39.823,568.82C59.042,590.713 203.578,434.632 293.415,427.809C333.536,424.761 409.716,456.898 501.946,474.982C616.234,497.391 754.558,503.703 872.242,459.65C1084.89,380.047 1156.54,341.383 1172.46,328.874C1188.38,316.365 1173.6,310.679 1171.32,290.209C1169.05,269.74 1170.18,243.585 1170.18,243.585Z" style="fill:rgb(7,42,64);"/>
        </g>
        <g transform="matrix(0.310166,0,0,0.310166,75.4138,130.467)">
            <path d="M1170.18,243.585C1170.18,243.585 933.446,111.5 813.108,103.711C668.636,94.36 409.457,230.95 354.823,264.054C287.091,305.094 237.693,266.328 151.267,235.625C64.841,204.921 26.177,200.372 25.04,212.881C24.01,224.206 95.545,303.856 95.545,350.48C95.545,389.211 11.992,537.115 39.823,568.82C59.042,590.713 203.578,434.632 293.415,427.809C333.536,424.761 409.716,456.898 501.946,474.982C616.234,497.391 754.558,503.703 872.242,459.65C1084.89,380.047 1156.54,341.383 1172.46,328.874C1188.38,316.365 1173.6,310.679 1171.32,290.209C1169.05,269.74 1170.18,243.585 1170.18,243.585Z" style="fill:rgb(24,183,190);"/>
            <path d="M1179.15,243.975C1179.3,240.584 1177.52,237.4 1174.56,235.746C1174.56,235.746 935.262,102.623 813.688,94.754C754.897,90.949 677.389,110.679 602.041,138.145C490.243,178.898 383.16,236.39 350.172,256.378C312.257,279.351 280.481,275.176 243.726,262.248C217.469,253.013 188.832,239.445 154.272,227.167C91.96,205.029 53.659,196.464 35.941,197.514C22.099,198.334 16.741,205.022 16.101,212.068C15.918,214.083 16.384,217.329 18.317,221.386C20.725,226.439 25.859,234.278 32.406,243.851C44.625,261.72 61.968,286.158 73.865,309.807C81.206,324.399 86.569,338.581 86.569,350.48C86.569,360.689 80.096,378.866 71.791,400.532C58.451,435.336 39.992,478.346 30.908,512.702C26.75,528.428 24.568,542.476 25.325,553.396C25.952,562.442 28.61,569.651 33.078,574.741C36.392,578.517 41.224,580.513 47.799,579.739C53.219,579.1 60.634,576.12 69.471,570.972C99.378,553.547 149.932,510.153 201.142,477.024C233.772,455.915 266.547,438.851 294.095,436.759C309.412,435.595 330.206,439.997 355.314,446.572C394.923,456.944 444.673,472.899 500.219,483.79C616.014,506.494 756.153,512.69 875.389,468.056C1089.82,387.788 1161.95,348.545 1178,335.932C1183.93,331.278 1186.67,327.001 1187.88,323.114C1189.29,318.622 1188.87,314.262 1187.16,309.494C1185.35,304.442 1181.28,298.545 1180.24,289.218C1178.04,269.355 1179.15,243.975 1179.15,243.975ZM1170.18,243.585C1170.18,243.585 933.446,111.5 813.108,103.711C668.636,94.36 409.457,230.95 354.823,264.054C287.091,305.094 237.693,266.328 151.267,235.625C64.841,204.921 26.177,200.372 25.04,212.881C24.01,224.206 95.545,303.856 95.545,350.48C95.545,389.211 11.992,537.115 39.823,568.82C59.042,590.713 203.578,434.632 293.415,427.809C333.536,424.761 409.716,456.898 501.946,474.982C616.234,497.391 754.558,503.703 872.242,459.65C1084.89,380.047 1156.54,341.383 1172.46,328.874C1188.38,316.365 1173.6,310.679 1171.32,290.209C1169.05,269.74 1170.18,243.585 1170.18,243.585Z" style="fill:rgb(7,42,64);"/>
        </g>
        <g transform="matrix(0.310166,0,0,0.310166,75.4138,130.467)">
            <path d="M822.252,187.668C822.252,187.668 730.254,199.27 705.601,231.128C697.019,242.218 734.334,255.763 734.765,272.127C735.282,291.742 690.731,305.438 702.33,315C728.207,336.332 822.252,337.088 822.252,337.088C822.252,337.088 815.231,293.781 815.231,272.127C815.231,247.224 822.252,187.668 822.252,187.668Z" style="fill:rgb(23,140,164);"/>
            <path d="M831.166,188.719C831.49,185.978 830.533,183.24 828.573,181.296C826.613,179.352 823.868,178.418 821.129,178.763C821.129,178.763 774.801,184.631 738.308,199.369C721.438,206.182 706.702,215.038 698.502,225.635C693.227,232.452 694.335,240.094 701.407,247.836C705.601,252.427 712.445,257.388 718.317,262.65C720.598,264.694 722.718,266.772 724.248,268.951C725.043,270.082 725.761,271.161 725.793,272.363C725.834,273.946 725.034,275.369 724.054,276.789C722.345,279.261 719.921,281.554 717.303,283.759C710.648,289.363 702.807,294.331 698.171,298.69C693.665,302.925 691.582,307.348 691.436,311.021C691.288,314.756 692.525,318.549 696.62,321.926C705.221,329.016 720.489,334.389 737.83,337.969C775.127,345.667 822.18,346.064 822.18,346.064C824.824,346.085 827.343,344.939 829.065,342.932C830.786,340.926 831.536,338.262 831.112,335.652C831.112,335.652 824.207,293.303 824.207,272.127C824.207,247.533 831.166,188.719 831.166,188.719ZM822.252,187.668C822.252,187.668 730.254,199.27 705.601,231.128C697.019,242.218 734.334,255.763 734.765,272.127C735.282,291.742 690.731,305.438 702.33,315C728.207,336.332 822.252,337.088 822.252,337.088C822.252,337.088 815.231,293.781 815.231,272.127C815.231,247.224 822.252,187.668 822.252,187.668Z" style="fill:rgb(7,42,64);"/>
        </g>
        <g transform="matrix(0.310166,0,0,0.310166,75.4138,130.467)">
            <path d="M221.702,454.028C141.373,499.345 54.425,585.454 39.823,568.82C11.992,537.115 95.545,389.211 95.545,350.48C95.545,303.856 24.01,224.206 25.04,212.881C26.177,200.372 64.841,204.921 151.267,235.625C179.027,245.487 202.967,256.18 224.912,264.791C214.48,291.331 202.246,333.194 204.3,380.089C205.727,412.666 213.271,436.832 221.702,454.028Z" style="fill:rgb(23,140,164);"/>
            <path d="M226.112,461.846C230.254,459.509 231.854,454.347 229.761,450.077C221.738,433.712 214.625,410.698 213.267,379.696C211.279,334.294 223.166,293.77 233.266,268.074C234.137,265.858 234.092,263.386 233.14,261.203C232.188,259.02 230.408,257.305 228.191,256.435C206.164,247.793 182.134,237.065 154.272,227.167C91.96,205.029 53.659,196.464 35.941,197.514C22.099,198.334 16.741,205.022 16.101,212.068C15.918,214.083 16.384,217.329 18.317,221.386C20.725,226.439 25.859,234.278 32.406,243.851C44.625,261.72 61.968,286.158 73.865,309.807C81.206,324.399 86.569,338.581 86.569,350.48C86.569,360.689 80.096,378.866 71.791,400.532C58.451,435.336 39.992,478.346 30.908,512.702C26.75,528.428 24.568,542.476 25.325,553.396C25.952,562.442 28.61,569.651 33.078,574.741C35.803,577.846 39.495,579.672 44.287,579.88C48.42,580.059 53.908,578.776 60.409,575.762C92.829,560.732 161.622,498.227 226.112,461.846ZM221.702,454.028C141.373,499.345 54.425,585.454 39.823,568.82C11.992,537.115 95.545,389.211 95.545,350.48C95.545,303.856 24.01,224.206 25.04,212.881C26.177,200.372 64.841,204.921 151.267,235.625C179.027,245.487 202.967,256.18 224.912,264.791C214.48,291.331 202.246,333.194 204.3,380.089C205.727,412.666 213.271,436.832 221.702,454.028Z" style="fill:rgb(7,42,64);"/>
        </g>
        <g transform="matrix(-0.58793,0.251772,-0.251772,-0.58793,516.51,388.338)">
            <path d="M40.721,183.28L48.991,259.166C46.636,261.864 44.499,264.763 42.621,267.843C33.303,281.775 25.785,297.494 24.228,314.419C22.651,331.014 26.943,347.484 32.715,362.879C32.748,362.967 32.781,363.055 32.816,363.142C39.71,380.447 46.659,397.914 56.848,413.606C63.822,424.46 73.262,433.858 84.712,439.949C100.498,448.434 119.38,450.632 136.81,446.816C148.251,444.322 158.991,438.779 167.577,430.804C177.663,421.709 185.374,410.316 193.26,399.262C193.299,399.206 193.338,399.151 193.377,399.095C200.706,388.494 207.726,377.662 214.186,366.509C225.263,385.565 236.785,404.477 251.046,421.379C256.181,427.471 261.659,433.415 268.443,437.726C280.657,445.793 295.671,449.527 310.324,448.346C330.789,447.302 350.939,440.371 367.564,428.357C367.574,428.351 367.583,428.344 367.592,428.337C378.478,420.429 388.036,410.431 394.601,398.625C394.614,398.601 394.627,398.578 394.64,398.554C395.438,397.1 396.182,395.618 396.874,394.114C410.196,414.608 429.259,431.48 451.913,440.916C451.933,440.924 451.953,440.933 451.973,440.941C471.252,448.864 493.325,450.934 513.405,444.702C513.572,444.651 513.737,444.596 513.901,444.538C528.466,439.405 539.574,426.766 544.405,412.344C548.263,402.225 551.557,391.853 556.255,382.055C556.299,381.964 556.341,381.873 556.382,381.781C561.705,370.027 568.368,358.953 574.477,347.607C574.563,347.448 574.646,347.287 574.725,347.124C579.91,336.513 583.403,324.408 581.226,312.484C581.211,312.403 581.195,312.322 581.179,312.241C578.662,299.726 570.794,289.053 561.555,280.637C554.693,274.031 547.538,267.655 539.991,261.793L548.896,190.003C565.089,178.986 578.584,163.936 586.789,146.067C586.821,145.997 586.852,145.928 586.883,145.858C595.349,126.583 591.663,102.536 577.473,86.89C567.825,75.796 554.528,68.751 541.203,62.999C528.068,57.22 514.728,51.511 503.103,42.966C503.043,42.922 502.982,42.878 502.921,42.835C494.451,36.819 486.588,29.884 477.49,24.794C477.413,24.751 477.334,24.708 477.256,24.666C470.705,21.166 463.311,18.916 455.794,19.3C455.735,19.303 455.676,19.306 455.618,19.31C443.051,20.112 431.863,28.099 425.401,38.545C413.88,53.926 404.144,70.546 395.252,87.573C394.693,87.001 394.125,86.439 393.548,85.889C376.669,68.166 360.862,49.45 345.265,30.588C345.21,30.523 345.155,30.458 345.1,30.393C336.257,20.094 325.912,10.351 312.884,5.639C307.148,3.558 301.042,2.418 294.926,2.54C294.71,2.545 294.494,2.554 294.279,2.568C276.577,3.755 260.2,13.219 248.6,26.303C233.735,42.555 218.648,59.042 207.824,78.379C200.785,71.594 193.124,65.449 186.341,58.378C186.245,58.277 186.147,58.178 186.048,58.081C174.816,47.059 164.82,34.88 154.415,23.1C154.304,22.975 154.19,22.851 154.075,22.73C144.58,12.74 132.913,4.032 119.188,0.973C119.117,0.958 119.047,0.942 118.976,0.928C115.73,0.258 112.413,-0.048 109.099,0.006C108.912,0.009 108.725,0.016 108.539,0.027C89.541,1.113 71.52,8.716 55.652,18.836C37.472,30.316 21.211,45.54 10.815,64.557C0.745,82.896 -2.97,105.14 2.615,125.515C8.636,148.162 22.013,169.013 40.721,183.28ZM99.537,262.989C113.409,262.885 127.313,264.776 140.598,268.789C140.778,268.843 140.959,268.894 141.14,268.94C157.778,273.233 172.716,283.398 183.2,296.971C189.632,305.634 195.786,314.963 197.823,325.669C197.838,325.747 197.853,325.824 197.869,325.902C199.348,333.01 196.902,340.244 193.758,346.631C186.771,359.279 178.966,371.454 170.759,383.33C164.038,392.757 157.67,402.626 149.016,410.419C148.959,410.47 148.903,410.522 148.847,410.574C143.854,415.222 137.592,418.429 130.933,419.88C130.928,419.881 130.923,419.882 130.918,419.883C119.826,422.312 107.79,421.059 97.747,415.656C97.726,415.644 97.704,415.632 97.682,415.621C90.374,411.738 84.475,405.608 80.028,398.68C80.015,398.658 80.001,398.637 79.987,398.616C70.802,384.479 64.694,368.668 58.482,353.073C54.181,341.585 50.496,329.39 51.676,317.011C51.678,316.994 51.679,316.977 51.681,316.96C52.82,304.523 58.828,293.161 65.697,282.931C65.823,282.743 65.945,282.552 66.062,282.358C73.014,270.814 86.153,263.687 99.511,262.99L99.537,262.989ZM292.624,264.728C293.831,264.723 295.038,264.77 296.237,264.899C308.665,266.839 320.017,272.658 331,278.506C342.703,284.933 354.823,291.375 363.851,301.424C363.902,301.481 363.954,301.538 364.006,301.594C369.864,307.901 372.127,316.573 373.472,324.91C375.009,337.208 376.486,349.562 376.1,361.955C376.095,362.109 376.093,362.263 376.093,362.417C376.112,370.327 374.302,378.274 370.503,385.231C365.869,393.549 359.046,400.467 351.402,406.022C339.018,414.967 323.987,420.077 308.743,420.82C308.58,420.828 308.417,420.839 308.254,420.853C299.624,421.582 290.756,419.438 283.526,414.648C283.443,414.592 283.359,414.538 283.274,414.484C278.838,411.683 275.474,407.583 272.124,403.608C272.122,403.607 272.121,403.605 272.119,403.603C256.709,385.339 244.837,364.49 232.937,343.864C232.906,343.81 232.875,343.758 232.844,343.705C227.601,334.891 227.181,323.241 232.403,314.348C232.53,314.131 232.652,313.911 232.767,313.687C240.625,298.455 253.632,286.494 267.951,277.354C268.026,277.306 268.101,277.257 268.175,277.208C275.78,272.143 283.504,266.475 292.617,264.728L292.624,264.728ZM483.441,265.803C489.842,265.714 496.227,267.174 502.05,269.813C517.154,277.771 530.348,288.851 542.586,300.644C542.686,300.741 542.787,300.835 542.89,300.929C547.876,305.451 552.718,310.813 554.122,317.538C555.167,323.534 552.676,329.426 550.081,334.759C543.721,346.557 536.859,358.085 531.323,370.287C526.296,380.802 522.7,391.919 518.538,402.801C518.458,403.009 518.383,403.22 518.314,403.432C516.169,409.974 511.521,416.041 504.971,418.452C491.052,422.687 475.819,420.927 462.483,415.452C440.482,406.278 423.013,387.91 412.974,366.465C412.894,366.295 412.811,366.127 412.725,365.96C404.91,350.901 402.119,333.051 406.143,316.487C406.158,316.423 406.174,316.359 406.188,316.294C408.27,307.158 411.283,297.752 417.791,290.811C435.869,275.132 459.626,266.691 483.42,265.803L483.441,265.803ZM215.497,151.277C208.83,164.772 199.075,176.772 187.162,185.962L186.262,261.257C193.314,266.779 199.682,273.181 205.143,280.279C205.19,280.34 205.237,280.401 205.283,280.463C208.116,284.276 210.85,288.219 213.351,292.303C222.019,278.96 233.67,267.68 246.642,258.474L250.19,184.469C245.083,180.715 240.122,176.76 235.308,172.641C235.302,172.637 235.297,172.632 235.291,172.627C227.952,166.327 221.127,159.205 215.497,151.277ZM398.357,153.436C397.566,154.585 396.744,155.71 395.894,156.808C395.86,156.853 395.825,156.897 395.79,156.941C390.634,163.443 384.244,168.868 377.615,173.808C377.565,173.845 377.514,173.882 377.463,173.919C369.982,179.337 362.005,183.957 353.778,188.109L350.311,257.696C362.646,264.653 374.743,272.323 384.276,282.907C385.41,284.132 386.475,285.406 387.476,286.723C390.348,281.087 393.91,275.83 398.358,271.24C398.615,270.975 398.882,270.721 399.16,270.477C405.307,265.077 411.98,260.333 419.04,256.26L424.669,185.53C413.941,176.685 405.139,165.587 398.357,153.436ZM159.424,200.495C149.412,203.627 138.857,205.096 128.401,205.328C128.379,205.329 128.357,205.329 128.336,205.33C127.636,205.342 126.935,205.351 126.235,205.356L126.899,237.456C134.128,238.593 141.281,240.209 148.288,242.312C151.884,243.25 155.422,244.389 158.883,245.715L159.424,200.495ZM519.33,204.451C513.844,206.12 508.218,207.293 502.529,207.984L501.368,240.453C505.674,241.558 509.879,243.059 513.912,244.921C514.038,244.98 514.163,245.04 514.287,245.102L519.33,204.451ZM325.555,200.677C320.534,202.594 315.384,204.319 310.128,205.416L308.399,239.282C313.509,240.575 318.497,242.295 323.382,244.288L325.555,200.677ZM451.074,201.175L447.667,243.981C456.201,241.435 464.987,239.712 473.841,238.835L474.957,207.621C466.775,206.424 458.734,204.263 451.074,201.175ZM276.977,201.312L275.048,241.55C276.93,240.745 278.843,240.017 280.791,239.385L282.613,203.685C280.698,202.99 278.817,202.192 276.977,201.312ZM70.044,197.931L74.717,240.812C82.267,237.669 90.354,235.811 98.508,235.436C98.676,235.429 98.844,235.424 99.011,235.423L99.284,235.42L98.63,203.815C94.171,203.277 89.729,202.596 85.315,201.772C85.264,201.763 85.212,201.753 85.161,201.743C80.083,200.734 75.014,199.487 70.044,197.931ZM457.284,46.83C459.708,46.734 462.002,47.781 464.125,48.909C472.303,53.507 479.278,59.849 486.877,65.256C500.109,74.962 515.186,81.673 530.141,88.253C530.172,88.267 530.202,88.28 530.233,88.293C539.859,92.445 549.794,97.028 556.765,105.09C556.845,105.183 556.926,105.274 557.008,105.365C564.078,113.115 565.847,125.059 561.693,134.65C553.278,152.893 537.368,167.006 519.181,175.129C519.174,175.132 519.167,175.135 519.161,175.138C497.085,185.04 470.254,182.583 449.871,169.727C449.822,169.697 449.774,169.666 449.725,169.636C435.428,160.866 425.019,146.842 418.263,131.66C418.095,131.283 417.911,130.915 417.711,130.555C414.243,124.332 412.609,116.694 414.831,109.84C424.455,90.643 434.905,71.747 447.849,54.564C448.155,54.157 448.439,53.733 448.699,53.295C450.573,50.13 453.515,47.122 457.269,46.831L457.284,46.83ZM295.792,30.101C298.419,30.096 301.024,30.664 303.489,31.559C303.494,31.56 303.499,31.562 303.503,31.564C312,34.636 318.318,41.528 324.091,48.247C340.159,67.676 356.445,86.928 373.839,105.169C374.008,105.347 374.181,105.519 374.36,105.687C378.176,109.285 381.845,113.703 382.439,119.013C382.27,126.64 378.77,133.854 374.166,139.837C370.499,144.442 365.898,148.153 361.229,151.635C348.125,161.109 333.238,167.659 318.402,173.874C312.021,176.419 305.432,179.215 298.462,179.077C298.423,179.076 298.384,179.076 298.345,179.075C293.77,179.024 289.526,176.981 285.622,174.717C285.597,174.702 285.572,174.688 285.548,174.674C274.059,168.106 263.291,160.3 253.241,151.701C243.375,143.23 234.418,132.984 230.265,120.486C230.264,120.485 230.264,120.483 230.263,120.482C227.4,111.874 226.802,102.028 230.841,93.748C240.671,75.372 255.071,60.078 269.027,44.82C269.079,44.762 269.131,44.705 269.182,44.646C275.997,36.938 285.38,30.917 295.774,30.102L295.792,30.101ZM109.823,27.57C110.979,27.568 112.135,27.677 113.269,27.902C121.532,29.781 128.187,35.537 133.909,41.532C144.657,53.706 155.015,66.236 166.596,77.619C174.463,85.792 183.495,92.748 191.382,100.91C191.48,101.012 191.579,101.111 191.68,101.209C195.239,104.673 197.78,109.454 197.624,114.469C195.991,136.603 182.71,157.328 163.709,168.632C163.689,168.644 163.669,168.656 163.649,168.668C152.92,175.125 140.243,177.482 127.841,177.764C115.316,177.982 102.774,176.978 90.476,174.689C78.817,172.369 67.109,168.699 57.564,161.453C57.564,161.453 57.564,161.453 57.564,161.452C43.603,150.856 33.723,135.257 29.244,118.37C29.233,118.33 29.222,118.291 29.212,118.251C25.493,104.722 28.298,89.995 34.987,77.817C34.992,77.808 34.997,77.8 35.002,77.791C43.156,62.869 56.131,51.136 70.396,42.132C70.415,42.12 70.434,42.108 70.453,42.096C82.306,34.534 95.619,28.459 109.798,27.571L109.823,27.57Z" style="fill:rgb(7,42,64);"/>
        </g>
        <g transform="matrix(0.310166,0,0,0.310166,75.4138,130.467)">
            <path d="M1170.18,243.585C1170.18,243.585 1033.67,167.42 915.281,127.354C877.763,114.657 958.998,426.601 993.044,412.892C1113.73,364.298 1160.04,338.63 1172.46,328.874C1188.38,316.365 1173.6,310.679 1171.32,290.209C1169.05,269.74 1170.18,243.585 1170.18,243.585Z" style="fill:rgb(24,183,190);"/>
        </g>
        <g transform="matrix(0.310166,0,0,0.310166,75.4138,130.467)">
            <path d="M1170.18,243.585L1170.06,243.711C1167.42,246.29 1125.36,287.863 1135.93,303.375C1144.91,316.538 1168.74,322.815 1176.93,324.632C1185.01,314.789 1173.32,308.224 1171.32,290.209C1169.05,269.74 1170.18,243.585 1170.18,243.585Z" style="fill:rgb(23,140,164);"/>
            <path d="M1169.95,252.281L1169.97,252.336L1170.18,252.561L1176.44,250.015C1178.03,248.474 1179.05,246.348 1179.15,243.975C1179.15,243.975 1178.04,269.355 1180.24,289.218C1181.36,299.26 1185.9,305.411 1187.59,310.749C1189.7,317.46 1189.53,323.429 1183.87,330.326C1181.73,332.941 1178.29,334.127 1174.99,333.395C1169.66,332.214 1158.24,329.269 1147.85,324.039C1140.04,320.112 1132.9,314.858 1128.52,308.432C1123.87,301.613 1124.53,291.219 1130.12,280.101C1139.54,261.382 1161.83,239.205 1163.78,237.296L1163.56,237.529C1161.67,239.507 1160.81,242.21 1161.16,244.854C1161.19,243.783 1161.22,243.195 1161.22,243.195L1161.95,243.964C1162.53,245.726 1163.79,247.351 1165.16,248.7C1153.71,260.721 1127.3,290.72 1135.93,303.375C1144.91,316.538 1168.74,322.815 1176.93,324.632C1185.01,314.789 1173.32,308.224 1171.32,290.209C1169.87,277.179 1169.81,261.844 1169.95,252.419L1170,252.446L1169.97,252.336L1169.95,252.321L1169.95,252.281ZM1170.37,252.556C1172.73,252.51 1174.87,251.553 1176.44,250.015L1170.37,252.556ZM1165.83,248.01L1161.95,243.964C1161.28,241.931 1161.52,239.715 1163.56,237.529L1163.6,237.485L1163.91,237.163C1165.02,236.081 1166.8,241.021 1168.16,245.61L1167.4,246.379L1165.83,248.01Z" style="fill:rgb(7,42,64);"/>
        </g>
        <g transform="matrix(0.310166,0,0,0.310166,76.472,127.986)">
            <circle cx="1015.63" cy="254.127" r="26" style="fill:rgb(7,42,64);"/>
            <path d="M1015.63,219.152C996.328,219.152 980.656,234.824 980.656,254.127C980.656,273.431 996.328,289.103 1015.63,289.103C1034.93,289.103 1050.61,273.431 1050.61,254.127C1050.61,234.824 1034.93,219.152 1015.63,219.152ZM1015.63,228.128C1029.98,228.128 1041.63,239.778 1041.63,254.127C1041.63,268.477 1029.98,280.127 1015.63,280.127C1001.28,280.127 989.632,268.477 989.632,254.127C989.632,239.778 1001.28,228.128 1015.63,228.128Z" style="fill:rgb(7,42,64);"/>
        </g>
    </g>
</svg>
