<?xml version="1.0" encoding="UTF-8" standalone="no"?>
<!DOCTYPE svg PUBLIC "-//W3C//DTD SVG 1.1//EN" "http://www.w3.org/Graphics/SVG/1.1/DTD/svg11.dtd">
<svg width="100%" height="100%" viewBox="0 0 555 555" version="1.1" xmlns="http://www.w3.org/2000/svg" xmlns:xlink="http://www.w3.org/1999/xlink" xml:space="preserve" xmlns:serif="http://www.serif.com/" style="fill-rule:evenodd;clip-rule:evenodd;stroke-linecap:round;stroke-linejoin:round;stroke-miterlimit:1.5;">
    <g transform="matrix(1,0,0,1,-22.6206,-22.6206)">
        <path d="M30.797,295.413C45.436,286.692 71,270.862 71,270.862C71,270.862 101.209,307.106 135,306.02C168.791,304.934 199,270.862 199,270.862C199,270.862 216.705,306.857 263,306.02C309.295,305.182 327,270.862 327,270.862C327,270.862 351.598,306.155 391,306.02C430.402,305.884 455,270.862 455,270.862C455,270.862 489.047,305.98 519,306.02C536.087,306.042 553.742,293.366 568.709,282.941C569.062,288.57 569.242,294.264 569.242,300C569.242,448.599 448.599,569.242 300,569.242C151.401,569.242 30.758,448.599 30.758,300C30.758,298.469 30.771,296.942 30.797,295.413Z" style="fill:rgb(23,140,164);stroke:rgb(7,42,64);stroke-width:2.96px;"/>
        <g transform="matrix(0.586378,0.810037,-0.810037,0.586378,279.055,223.434)">
            <g transform="matrix(1.20124,-0.698212,0.698212,1.20124,-132.706,3.12391)">
                <path d="M92.933,105.627C92.933,105.627 88.713,121.84 94.452,125.033C103.717,130.186 114.878,117.842 114.878,117.842L104.984,133.554C94.05,137.787 86.665,132.887 82.252,120.341L92.933,105.627Z" style="fill:rgb(202,202,202);stroke:rgb(7,42,64);stroke-width:1.44px;"/>
            </g>
            <g transform="matrix(1.20124,-0.698212,0.698212,1.20124,-132.706,3.12391)">
                <path d="M85.746,101.526C85.746,101.526 74.184,123.335 70.036,131.595C67.558,136.528 55.721,149.555 55.721,149.555L92.061,173.904C92.061,173.904 95.044,165.589 102.252,153.736C108.921,142.768 118.181,121.618 120.225,121.618C122.269,121.618 114.991,117.802 114.991,117.802C114.991,117.802 101.6,136.381 91.834,128.659C82.067,120.937 92.92,105.588 92.92,105.588L85.746,101.526Z" style="fill:rgb(249,247,240);stroke:rgb(7,42,64);stroke-width:1.44px;"/>
            </g>
            <g transform="matrix(1.20124,-0.698212,0.698212,1.20124,-132.706,3.12391)">
                <path d="M120.531,121.127C118.73,125.03 108.988,149.425 106.717,155.287C104.924,159.915 100.454,170.386 100.454,170.386C100.454,170.386 97.827,170.144 96.657,170.634C95.256,171.22 92.047,173.904 92.047,173.904" style="fill:rgb(24,183,190);stroke:rgb(7,42,64);stroke-width:1.44px;"/>
            </g>
        </g>
        <g transform="matrix(-0.154597,0.112297,-0.112297,-0.154597,578.001,345.33)">
            <path d="M40.721,183.28L48.991,259.166C46.636,261.864 44.499,264.763 42.621,267.843C33.303,281.775 25.785,297.494 24.228,314.419C22.651,331.014 26.943,347.484 32.715,362.879C32.748,362.967 32.781,363.055 32.816,363.142C39.71,380.447 46.659,397.914 56.848,413.606C63.822,424.46 73.262,433.858 84.712,439.949C100.498,448.434 119.38,450.632 136.81,446.816C148.251,444.322 158.991,438.779 167.577,430.804C177.663,421.709 185.374,410.316 193.26,399.262C193.299,399.206 193.338,399.151 193.377,399.095C200.706,388.494 207.726,377.662 214.186,366.509C225.263,385.565 236.785,404.477 251.046,421.379C256.181,427.471 261.659,433.415 268.443,437.726C280.657,445.793 295.671,449.527 310.324,448.346C330.789,447.302 350.939,440.371 367.564,428.357C367.574,428.351 367.583,428.344 367.592,428.337C378.478,420.429 388.036,410.431 394.601,398.625C394.614,398.601 394.627,398.578 394.64,398.554C395.438,397.1 396.182,395.618 396.874,394.114C410.196,414.608 429.259,431.48 451.913,440.916C451.933,440.924 451.953,440.933 451.973,440.941C471.252,448.864 493.325,450.934 513.405,444.702C513.572,444.651 513.737,444.596 513.901,444.538C528.466,439.405 539.574,426.766 544.405,412.344C548.263,402.225 551.557,391.853 556.255,382.055C556.299,381.964 556.341,381.873 556.382,381.781C561.705,370.027 568.368,358.953 574.477,347.607C574.563,347.448 574.646,347.287 574.725,347.124C579.91,336.513 583.403,324.408 581.226,312.484C581.211,312.403 581.195,312.322 581.179,312.241C578.662,299.726 570.794,289.053 561.555,280.637C554.693,274.031 547.538,267.655 539.991,261.793L548.896,190.003C565.089,178.986 578.584,163.936 586.789,146.067C586.821,145.997 586.852,145.928 586.883,145.858C595.349,126.583 591.663,102.536 577.473,86.89C567.825,75.796 554.528,68.751 541.203,62.999C528.068,57.22 514.728,51.511 503.103,42.966C503.043,42.922 502.982,42.878 502.921,42.835C494.451,36.819 486.588,29.884 477.49,24.794C477.413,24.751 477.334,24.708 477.256,24.666C470.705,21.166 463.311,18.916 455.794,19.3C455.735,19.303 455.676,19.306 455.618,19.31C443.051,20.112 431.863,28.099 425.401,38.545C413.88,53.926 404.144,70.546 395.252,87.573C394.693,87.001 394.125,86.439 393.548,85.889C376.669,68.166 360.862,49.45 345.265,30.588C345.21,30.523 345.155,30.458 345.1,30.393C336.257,20.094 325.912,10.351 312.884,5.639C307.148,3.558 301.042,2.418 294.926,2.54C294.71,2.545 294.494,2.554 294.279,2.568C276.577,3.755 260.2,13.219 248.6,26.303C233.735,42.555 218.648,59.042 207.824,78.379C200.785,71.594 193.124,65.449 186.341,58.378C186.245,58.277 186.147,58.178 186.048,58.081C174.816,47.059 164.82,34.88 154.415,23.1C154.304,22.975 154.19,22.851 154.075,22.73C144.58,12.74 132.913,4.032 119.188,0.973C119.117,0.958 119.047,0.942 118.976,0.928C115.73,0.258 112.413,-0.048 109.099,0.006C108.912,0.009 108.725,0.016 108.539,0.027C89.541,1.113 71.52,8.716 55.652,18.836C37.472,30.316 21.211,45.54 10.815,64.557C0.745,82.896 -2.97,105.14 2.615,125.515C8.636,148.162 22.013,169.013 40.721,183.28ZM99.537,262.989C113.409,262.885 127.313,264.776 140.598,268.789C140.778,268.843 140.959,268.894 141.14,268.94C157.778,273.233 172.716,283.398 183.2,296.971C189.632,305.634 195.786,314.963 197.823,325.669C197.838,325.747 197.853,325.824 197.869,325.902C199.348,333.01 196.902,340.244 193.758,346.631C186.771,359.279 178.966,371.454 170.759,383.33C164.038,392.757 157.67,402.626 149.016,410.419C148.959,410.47 148.903,410.522 148.847,410.574C143.854,415.222 137.592,418.429 130.933,419.88C130.928,419.881 130.923,419.882 130.918,419.883C119.826,422.312 107.79,421.059 97.747,415.656C97.726,415.644 97.704,415.632 97.682,415.621C90.374,411.738 84.475,405.608 80.028,398.68C80.015,398.658 80.001,398.637 79.987,398.616C70.802,384.479 64.694,368.668 58.482,353.073C54.181,341.585 50.496,329.39 51.676,317.011C51.678,316.994 51.679,316.977 51.681,316.96C52.82,304.523 58.828,293.161 65.697,282.931C65.823,282.743 65.945,282.552 66.062,282.358C73.014,270.814 86.153,263.687 99.511,262.99L99.537,262.989ZM292.624,264.728C293.831,264.723 295.038,264.77 296.237,264.899C308.665,266.839 320.017,272.658 331,278.506C342.703,284.933 354.823,291.375 363.851,301.424C363.902,301.481 363.954,301.538 364.006,301.594C369.864,307.901 372.127,316.573 373.472,324.91C375.009,337.208 376.486,349.562 376.1,361.955C376.095,362.109 376.093,362.263 376.093,362.417C376.112,370.327 374.302,378.274 370.503,385.231C365.869,393.549 359.046,400.467 351.402,406.022C339.018,414.967 323.987,420.077 308.743,420.82C308.58,420.828 308.417,420.839 308.254,420.853C299.624,421.582 290.756,419.438 283.526,414.648C283.443,414.592 283.359,414.538 283.274,414.484C278.838,411.683 275.474,407.583 272.124,403.608C272.122,403.607 272.121,403.605 272.119,403.603C256.709,385.339 244.837,364.49 232.937,343.864C232.906,343.81 232.875,343.758 232.844,343.705C227.601,334.891 227.181,323.241 232.403,314.348C232.53,314.131 232.652,313.911 232.767,313.687C240.625,298.455 253.632,286.494 267.951,277.354C268.026,277.306 268.101,277.257 268.175,277.208C275.78,272.143 283.504,266.475 292.617,264.728L292.624,264.728ZM483.441,265.803C489.842,265.714 496.227,267.174 502.05,269.813C517.154,277.771 530.348,288.851 542.586,300.644C542.686,300.741 542.787,300.835 542.89,300.929C547.876,305.451 552.718,310.813 554.122,317.538C555.167,323.534 552.676,329.426 550.081,334.759C543.721,346.557 536.859,358.085 531.323,370.287C526.296,380.802 522.7,391.919 518.538,402.801C518.458,403.009 518.383,403.22 518.314,403.432C516.169,409.974 511.521,416.041 504.971,418.452C491.052,422.687 475.819,420.927 462.483,415.452C440.482,406.278 423.013,387.91 412.974,366.465C412.894,366.295 412.811,366.127 412.725,365.96C404.91,350.901 402.119,333.051 406.143,316.487C406.158,316.423 406.174,316.359 406.188,316.294C408.27,307.158 411.283,297.752 417.791,290.811C435.869,275.132 459.626,266.691 483.42,265.803L483.441,265.803ZM215.497,151.277C208.83,164.772 199.075,176.772 187.162,185.962L186.262,261.257C193.314,266.779 199.682,273.181 205.143,280.279C205.19,280.34 205.237,280.401 205.283,280.463C208.116,284.276 210.85,288.219 213.351,292.303C222.019,278.96 233.67,267.68 246.642,258.474L250.19,184.469C245.083,180.715 240.122,176.76 235.308,172.641C235.302,172.637 235.297,172.632 235.291,172.627C227.952,166.327 221.127,159.205 215.497,151.277ZM398.357,153.436C397.566,154.585 396.744,155.71 395.894,156.808C395.86,156.853 395.825,156.897 395.79,156.941C390.634,163.443 384.244,168.868 377.615,173.808C377.565,173.845 377.514,173.882 377.463,173.919C369.982,179.337 362.005,183.957 353.778,188.109L350.311,257.696C362.646,264.653 374.743,272.323 384.276,282.907C385.41,284.132 386.475,285.406 387.476,286.723C390.348,281.087 393.91,275.83 398.358,271.24C398.615,270.975 398.882,270.721 399.16,270.477C405.307,265.077 411.98,260.333 419.04,256.26L424.669,185.53C413.941,176.685 405.139,165.587 398.357,153.436ZM159.424,200.495C149.412,203.627 138.857,205.096 128.401,205.328C128.379,205.329 128.357,205.329 128.336,205.33C127.636,205.342 126.935,205.351 126.235,205.356L126.899,237.456C134.128,238.593 141.281,240.209 148.288,242.312C151.884,243.25 155.422,244.389 158.883,245.715L159.424,200.495ZM519.33,204.451C513.844,206.12 508.218,207.293 502.529,207.984L501.368,240.453C505.674,241.558 509.879,243.059 513.912,244.921C514.038,244.98 514.163,245.04 514.287,245.102L519.33,204.451ZM325.555,200.677C320.534,202.594 315.384,204.319 310.128,205.416L308.399,239.282C313.509,240.575 318.497,242.295 323.382,244.288L325.555,200.677ZM451.074,201.175L447.667,243.981C456.201,241.435 464.987,239.712 473.841,238.835L474.957,207.621C466.775,206.424 458.734,204.263 451.074,201.175ZM276.977,201.312L275.048,241.55C276.93,240.745 278.843,240.017 280.791,239.385L282.613,203.685C280.698,202.99 278.817,202.192 276.977,201.312ZM70.044,197.931L74.717,240.812C82.267,237.669 90.354,235.811 98.508,235.436C98.676,235.429 98.844,235.424 99.011,235.423L99.284,235.42L98.63,203.815C94.171,203.277 89.729,202.596 85.315,201.772C85.264,201.763 85.212,201.753 85.161,201.743C80.083,200.734 75.014,199.487 70.044,197.931ZM457.284,46.83C459.708,46.734 462.002,47.781 464.125,48.909C472.303,53.507 479.278,59.849 486.877,65.256C500.109,74.962 515.186,81.673 530.141,88.253C530.172,88.267 530.202,88.28 530.233,88.293C539.859,92.445 549.794,97.028 556.765,105.09C556.845,105.183 556.926,105.274 557.008,105.365C564.078,113.115 565.847,125.059 561.693,134.65C553.278,152.893 537.368,167.006 519.181,175.129C519.174,175.132 519.167,175.135 519.161,175.138C497.085,185.04 470.254,182.583 449.871,169.727C449.822,169.697 449.774,169.666 449.725,169.636C435.428,160.866 425.019,146.842 418.263,131.66C418.095,131.283 417.911,130.915 417.711,130.555C414.243,124.332 412.609,116.694 414.831,109.84C424.455,90.643 434.905,71.747 447.849,54.564C448.155,54.157 448.439,53.733 448.699,53.295C450.573,50.13 453.515,47.122 457.269,46.831L457.284,46.83ZM295.792,30.101C298.419,30.096 301.024,30.664 303.489,31.559C303.494,31.56 303.499,31.562 303.503,31.564C312,34.636 318.318,41.528 324.091,48.247C340.159,67.676 356.445,86.928 373.839,105.169C374.008,105.347 374.181,105.519 374.36,105.687C378.176,109.285 381.845,113.703 382.439,119.013C382.27,126.64 378.77,133.854 374.166,139.837C370.499,144.442 365.898,148.153 361.229,151.635C348.125,161.109 333.238,167.659 318.402,173.874C312.021,176.419 305.432,179.215 298.462,179.077C298.423,179.076 298.384,179.076 298.345,179.075C293.77,179.024 289.526,176.981 285.622,174.717C285.597,174.702 285.572,174.688 285.548,174.674C274.059,168.106 263.291,160.3 253.241,151.701C243.375,143.23 234.418,132.984 230.265,120.486C230.264,120.485 230.264,120.483 230.263,120.482C227.4,111.874 226.802,102.028 230.841,93.748C240.671,75.372 255.071,60.078 269.027,44.82C269.079,44.762 269.131,44.705 269.182,44.646C275.997,36.938 285.38,30.917 295.774,30.102L295.792,30.101ZM109.823,27.57C110.979,27.568 112.135,27.677 113.269,27.902C121.532,29.781 128.187,35.537 133.909,41.532C144.657,53.706 155.015,66.236 166.596,77.619C174.463,85.792 183.495,92.748 191.382,100.91C191.48,101.012 191.579,101.111 191.68,101.209C195.239,104.673 197.78,109.454 197.624,114.469C195.991,136.603 182.71,157.328 163.709,168.632C163.689,168.644 163.669,168.656 163.649,168.668C152.92,175.125 140.243,177.482 127.841,177.764C115.316,177.982 102.774,176.978 90.476,174.689C78.817,172.369 67.109,168.699 57.564,161.453C57.564,161.453 57.564,161.453 57.564,161.452C43.603,150.856 33.723,135.257 29.244,118.37C29.233,118.33 29.222,118.291 29.212,118.251C25.493,104.722 28.298,89.995 34.987,77.817C34.992,77.808 34.997,77.8 35.002,77.791C43.156,62.869 56.131,51.136 70.396,42.132C70.415,42.12 70.434,42.108 70.453,42.096C82.306,34.534 95.619,28.459 109.798,27.571L109.823,27.57Z" style="fill:rgb(7,42,64);"/>
        </g>
        <g transform="matrix(-0.17691,-0.0722062,0.0722062,-0.17691,175.414,397.131)">
            <path d="M40.721,183.28L48.991,259.166C46.636,261.864 44.499,264.763 42.621,267.843C33.303,281.775 25.785,297.494 24.228,314.419C22.651,331.014 26.943,347.484 32.715,362.879C32.748,362.967 32.781,363.055 32.816,363.142C39.71,380.447 46.659,397.914 56.848,413.606C63.822,424.46 73.262,433.858 84.712,439.949C100.498,448.434 119.38,450.632 136.81,446.816C148.251,444.322 158.991,438.779 167.577,430.804C177.663,421.709 185.374,410.316 193.26,399.262C193.299,399.206 193.338,399.151 193.377,399.095C200.706,388.494 207.726,377.662 214.186,366.509C225.263,385.565 236.785,404.477 251.046,421.379C256.181,427.471 261.659,433.415 268.443,437.726C280.657,445.793 295.671,449.527 310.324,448.346C330.789,447.302 350.939,440.371 367.564,428.357C367.574,428.351 367.583,428.344 367.592,428.337C378.478,420.429 388.036,410.431 394.601,398.625C394.614,398.601 394.627,398.578 394.64,398.554C395.438,397.1 396.182,395.618 396.874,394.114C410.196,414.608 429.259,431.48 451.913,440.916C451.933,440.924 451.953,440.933 451.973,440.941C471.252,448.864 493.325,450.934 513.405,444.702C513.572,444.651 513.737,444.596 513.901,444.538C528.466,439.405 539.574,426.766 544.405,412.344C548.263,402.225 551.557,391.853 556.255,382.055C556.299,381.964 556.341,381.873 556.382,381.781C561.705,370.027 568.368,358.953 574.477,347.607C574.563,347.448 574.646,347.287 574.725,347.124C579.91,336.513 583.403,324.408 581.226,312.484C581.211,312.403 581.195,312.322 581.179,312.241C578.662,299.726 570.794,289.053 561.555,280.637C554.693,274.031 547.538,267.655 539.991,261.793L548.896,190.003C565.089,178.986 578.584,163.936 586.789,146.067C586.821,145.997 586.852,145.928 586.883,145.858C595.349,126.583 591.663,102.536 577.473,86.89C567.825,75.796 554.528,68.751 541.203,62.999C528.068,57.22 514.728,51.511 503.103,42.966C503.043,42.922 502.982,42.878 502.921,42.835C494.451,36.819 486.588,29.884 477.49,24.794C477.413,24.751 477.334,24.708 477.256,24.666C470.705,21.166 463.311,18.916 455.794,19.3C455.735,19.303 455.676,19.306 455.618,19.31C443.051,20.112 431.863,28.099 425.401,38.545C413.88,53.926 404.144,70.546 395.252,87.573C394.693,87.001 394.125,86.439 393.548,85.889C376.669,68.166 360.862,49.45 345.265,30.588C345.21,30.523 345.155,30.458 345.1,30.393C336.257,20.094 325.912,10.351 312.884,5.639C307.148,3.558 301.042,2.418 294.926,2.54C294.71,2.545 294.494,2.554 294.279,2.568C276.577,3.755 260.2,13.219 248.6,26.303C233.735,42.555 218.648,59.042 207.824,78.379C200.785,71.594 193.124,65.449 186.341,58.378C186.245,58.277 186.147,58.178 186.048,58.081C174.816,47.059 164.82,34.88 154.415,23.1C154.304,22.975 154.19,22.851 154.075,22.73C144.58,12.74 132.913,4.032 119.188,0.973C119.117,0.958 119.047,0.942 118.976,0.928C115.73,0.258 112.413,-0.048 109.099,0.006C108.912,0.009 108.725,0.016 108.539,0.027C89.541,1.113 71.52,8.716 55.652,18.836C37.472,30.316 21.211,45.54 10.815,64.557C0.745,82.896 -2.97,105.14 2.615,125.515C8.636,148.162 22.013,169.013 40.721,183.28ZM99.537,262.989C113.409,262.885 127.313,264.776 140.598,268.789C140.778,268.843 140.959,268.894 141.14,268.94C157.778,273.233 172.716,283.398 183.2,296.971C189.632,305.634 195.786,314.963 197.823,325.669C197.838,325.747 197.853,325.824 197.869,325.902C199.348,333.01 196.902,340.244 193.758,346.631C186.771,359.279 178.966,371.454 170.759,383.33C164.038,392.757 157.67,402.626 149.016,410.419C148.959,410.47 148.903,410.522 148.847,410.574C143.854,415.222 137.592,418.429 130.933,419.88C130.928,419.881 130.923,419.882 130.918,419.883C119.826,422.312 107.79,421.059 97.747,415.656C97.726,415.644 97.704,415.632 97.682,415.621C90.374,411.738 84.475,405.608 80.028,398.68C80.015,398.658 80.001,398.637 79.987,398.616C70.802,384.479 64.694,368.668 58.482,353.073C54.181,341.585 50.496,329.39 51.676,317.011C51.678,316.994 51.679,316.977 51.681,316.96C52.82,304.523 58.828,293.161 65.697,282.931C65.823,282.743 65.945,282.552 66.062,282.358C73.014,270.814 86.153,263.687 99.511,262.99L99.537,262.989ZM292.624,264.728C293.831,264.723 295.038,264.77 296.237,264.899C308.665,266.839 320.017,272.658 331,278.506C342.703,284.933 354.823,291.375 363.851,301.424C363.902,301.481 363.954,301.538 364.006,301.594C369.864,307.901 372.127,316.573 373.472,324.91C375.009,337.208 376.486,349.562 376.1,361.955C376.095,362.109 376.093,362.263 376.093,362.417C376.112,370.327 374.302,378.274 370.503,385.231C365.869,393.549 359.046,400.467 351.402,406.022C339.018,414.967 323.987,420.077 308.743,420.82C308.58,420.828 308.417,420.839 308.254,420.853C299.624,421.582 290.756,419.438 283.526,414.648C283.443,414.592 283.359,414.538 283.274,414.484C278.838,411.683 275.474,407.583 272.124,403.608C272.122,403.607 272.121,403.605 272.119,403.603C256.709,385.339 244.837,364.49 232.937,343.864C232.906,343.81 232.875,343.758 232.844,343.705C227.601,334.891 227.181,323.241 232.403,314.348C232.53,314.131 232.652,313.911 232.767,313.687C240.625,298.455 253.632,286.494 267.951,277.354C268.026,277.306 268.101,277.257 268.175,277.208C275.78,272.143 283.504,266.475 292.617,264.728L292.624,264.728ZM483.441,265.803C489.842,265.714 496.227,267.174 502.05,269.813C517.154,277.771 530.348,288.851 542.586,300.644C542.686,300.741 542.787,300.835 542.89,300.929C547.876,305.451 552.718,310.813 554.122,317.538C555.167,323.534 552.676,329.426 550.081,334.759C543.721,346.557 536.859,358.085 531.323,370.287C526.296,380.802 522.7,391.919 518.538,402.801C518.458,403.009 518.383,403.22 518.314,403.432C516.169,409.974 511.521,416.041 504.971,418.452C491.052,422.687 475.819,420.927 462.483,415.452C440.482,406.278 423.013,387.91 412.974,366.465C412.894,366.295 412.811,366.127 412.725,365.96C404.91,350.901 402.119,333.051 406.143,316.487C406.158,316.423 406.174,316.359 406.188,316.294C408.27,307.158 411.283,297.752 417.791,290.811C435.869,275.132 459.626,266.691 483.42,265.803L483.441,265.803ZM215.497,151.277C208.83,164.772 199.075,176.772 187.162,185.962L186.262,261.257C193.314,266.779 199.682,273.181 205.143,280.279C205.19,280.34 205.237,280.401 205.283,280.463C208.116,284.276 210.85,288.219 213.351,292.303C222.019,278.96 233.67,267.68 246.642,258.474L250.19,184.469C245.083,180.715 240.122,176.76 235.308,172.641C235.302,172.637 235.297,172.632 235.291,172.627C227.952,166.327 221.127,159.205 215.497,151.277ZM398.357,153.436C397.566,154.585 396.744,155.71 395.894,156.808C395.86,156.853 395.825,156.897 395.79,156.941C390.634,163.443 384.244,168.868 377.615,173.808C377.565,173.845 377.514,173.882 377.463,173.919C369.982,179.337 362.005,183.957 353.778,188.109L350.311,257.696C362.646,264.653 374.743,272.323 384.276,282.907C385.41,284.132 386.475,285.406 387.476,286.723C390.348,281.087 393.91,275.83 398.358,271.24C398.615,270.975 398.882,270.721 399.16,270.477C405.307,265.077 411.98,260.333 419.04,256.26L424.669,185.53C413.941,176.685 405.139,165.587 398.357,153.436ZM159.424,200.495C149.412,203.627 138.857,205.096 128.401,205.328C128.379,205.329 128.357,205.329 128.336,205.33C127.636,205.342 126.935,205.351 126.235,205.356L126.899,237.456C134.128,238.593 141.281,240.209 148.288,242.312C151.884,243.25 155.422,244.389 158.883,245.715L159.424,200.495ZM519.33,204.451C513.844,206.12 508.218,207.293 502.529,207.984L501.368,240.453C505.674,241.558 509.879,243.059 513.912,244.921C514.038,244.98 514.163,245.04 514.287,245.102L519.33,204.451ZM325.555,200.677C320.534,202.594 315.384,204.319 310.128,205.416L308.399,239.282C313.509,240.575 318.497,242.295 323.382,244.288L325.555,200.677ZM451.074,201.175L447.667,243.981C456.201,241.435 464.987,239.712 473.841,238.835L474.957,207.621C466.775,206.424 458.734,204.263 451.074,201.175ZM276.977,201.312L275.048,241.55C276.93,240.745 278.843,240.017 280.791,239.385L282.613,203.685C280.698,202.99 278.817,202.192 276.977,201.312ZM70.044,197.931L74.717,240.812C82.267,237.669 90.354,235.811 98.508,235.436C98.676,235.429 98.844,235.424 99.011,235.423L99.284,235.42L98.63,203.815C94.171,203.277 89.729,202.596 85.315,201.772C85.264,201.763 85.212,201.753 85.161,201.743C80.083,200.734 75.014,199.487 70.044,197.931ZM457.284,46.83C459.708,46.734 462.002,47.781 464.125,48.909C472.303,53.507 479.278,59.849 486.877,65.256C500.109,74.962 515.186,81.673 530.141,88.253C530.172,88.267 530.202,88.28 530.233,88.293C539.859,92.445 549.794,97.028 556.765,105.09C556.845,105.183 556.926,105.274 557.008,105.365C564.078,113.115 565.847,125.059 561.693,134.65C553.278,152.893 537.368,167.006 519.181,175.129C519.174,175.132 519.167,175.135 519.161,175.138C497.085,185.04 470.254,182.583 449.871,169.727C449.822,169.697 449.774,169.666 449.725,169.636C435.428,160.866 425.019,146.842 418.263,131.66C418.095,131.283 417.911,130.915 417.711,130.555C414.243,124.332 412.609,116.694 414.831,109.84C424.455,90.643 434.905,71.747 447.849,54.564C448.155,54.157 448.439,53.733 448.699,53.295C450.573,50.13 453.515,47.122 457.269,46.831L457.284,46.83ZM295.792,30.101C298.419,30.096 301.024,30.664 303.489,31.559C303.494,31.56 303.499,31.562 303.503,31.564C312,34.636 318.318,41.528 324.091,48.247C340.159,67.676 356.445,86.928 373.839,105.169C374.008,105.347 374.181,105.519 374.36,105.687C378.176,109.285 381.845,113.703 382.439,119.013C382.27,126.64 378.77,133.854 374.166,139.837C370.499,144.442 365.898,148.153 361.229,151.635C348.125,161.109 333.238,167.659 318.402,173.874C312.021,176.419 305.432,179.215 298.462,179.077C298.423,179.076 298.384,179.076 298.345,179.075C293.77,179.024 289.526,176.981 285.622,174.717C285.597,174.702 285.572,174.688 285.548,174.674C274.059,168.106 263.291,160.3 253.241,151.701C243.375,143.23 234.418,132.984 230.265,120.486C230.264,120.485 230.264,120.483 230.263,120.482C227.4,111.874 226.802,102.028 230.841,93.748C240.671,75.372 255.071,60.078 269.027,44.82C269.079,44.762 269.131,44.705 269.182,44.646C275.997,36.938 285.38,30.917 295.774,30.102L295.792,30.101ZM109.823,27.57C110.979,27.568 112.135,27.677 113.269,27.902C121.532,29.781 128.187,35.537 133.909,41.532C144.657,53.706 155.015,66.236 166.596,77.619C174.463,85.792 183.495,92.748 191.382,100.91C191.48,101.012 191.579,101.111 191.68,101.209C195.239,104.673 197.78,109.454 197.624,114.469C195.991,136.603 182.71,157.328 163.709,168.632C163.689,168.644 163.669,168.656 163.649,168.668C152.92,175.125 140.243,177.482 127.841,177.764C115.316,177.982 102.774,176.978 90.476,174.689C78.817,172.369 67.109,168.699 57.564,161.453C57.564,161.453 57.564,161.453 57.564,161.452C43.603,150.856 33.723,135.257 29.244,118.37C29.233,118.33 29.222,118.291 29.212,118.251C25.493,104.722 28.298,89.995 34.987,77.817C34.992,77.808 34.997,77.8 35.002,77.791C43.156,62.869 56.131,51.136 70.396,42.132C70.415,42.12 70.434,42.108 70.453,42.096C82.306,34.534 95.619,28.459 109.798,27.571L109.823,27.57Z" style="fill:rgb(7,42,64);"/>
        </g>
        <g transform="matrix(0.707107,-0.707107,0.707107,0.707107,-155.114,187.752)">
            <g transform="matrix(0.229936,0,0,0.229936,23.8725,240.622)">
                <path d="M300,34.469C311.654,34.283 335.739,35.502 335.739,35.502C335.739,35.502 332.453,140.766 369.373,200.248C384.969,225.375 382.369,258.957 385.835,300C389.301,341.043 370.281,443.364 372.88,463.292C375.48,483.22 389.301,514.328 387.568,534.256C385.835,554.183 382.871,582.107 340.781,583.642C325.977,584.182 315.739,584.517 308.659,584.72L308.659,584.946C308.659,584.946 309.44,585.118 300.776,584.926C292.113,585.118 292.893,584.946 292.893,584.946L292.893,584.72C285.814,584.517 275.576,584.182 260.772,583.642C218.681,582.107 215.718,554.183 213.985,534.256C212.252,514.328 226.073,483.22 228.672,463.292C231.272,443.364 212.252,341.043 215.718,300C219.183,258.957 216.584,225.375 232.18,200.248C269.1,140.766 265.814,36.619 265.814,36.619C265.814,36.619 288.583,34.652 300,34.469Z" style="fill:rgb(24,183,190);stroke:rgb(7,42,64);stroke-width:8.7px;"/>
            </g>
            <g transform="matrix(0.827451,0,0,0.762941,16.2423,60.8769)">
                <path d="M104.386,246C104.386,244.224 103.057,242.782 101.419,242.782L84.186,242.782C82.548,242.782 81.219,244.224 81.219,246L81.219,252.435C81.219,254.211 82.548,255.653 84.186,255.653L101.419,255.653C103.057,255.653 104.386,254.211 104.386,252.435L104.386,246Z" style="fill:rgb(235,235,235);stroke:rgb(7,42,64);stroke-width:2.51px;"/>
            </g>
            <g transform="matrix(1,0,0,1,0,1)">
                <path d="M98.875,266.832C99.644,266.601 101.414,277.066 102.617,280.731C103.887,284.601 105.169,286.386 106.077,290.02C107.258,294.741 108.083,309.562 107.909,318.104C107.75,325.884 105.335,336.123 105.032,341.271C104.888,343.713 106.243,353.839 106.697,355.808C107.152,357.776 103.114,357.381 102.617,356.11C101.658,353.659 100.644,345.179 100.944,341.102C101.246,336.982 103.811,323.531 103.876,317.565C103.931,312.531 103.381,295.997 102.617,291.303C102.102,288.147 98.824,279.19 98.521,276.616C98.218,274.041 97.957,267.108 98.875,266.832Z" style="fill:white;"/>
            </g>
            <g transform="matrix(-1,0,0,1,186.171,1)">
                <path d="M98.875,266.832C99.644,266.601 101.414,277.066 102.617,280.731C103.887,284.601 105.169,286.386 106.077,290.02C107.258,294.741 108.083,309.562 107.909,318.104C107.75,325.884 105.335,336.123 105.032,341.271C104.888,343.713 106.243,353.839 106.697,355.808C107.152,357.776 103.114,357.381 102.617,356.11C101.658,353.659 100.644,345.179 100.944,341.102C101.246,336.982 103.811,323.531 103.876,317.565C103.931,312.531 103.381,295.997 102.617,291.303C102.102,288.147 98.824,279.19 98.521,276.616C98.218,274.041 97.957,267.108 98.875,266.832Z" style="fill:rgb(23,140,164);"/>
            </g>
        </g>
        <g transform="matrix(0.258819,-0.965926,0.965926,0.258819,93.8694,349.094)">
            <g transform="matrix(0.229936,0,0,0.229936,23.8725,240.622)">
                <path d="M300,34.469C311.654,34.283 335.739,35.502 335.739,35.502C335.739,35.502 332.453,140.766 369.373,200.248C384.969,225.375 382.369,258.957 385.835,300C389.301,341.043 370.281,443.364 372.88,463.292C375.48,483.22 389.301,514.328 387.568,534.256C385.835,554.183 382.871,582.107 340.781,583.642C325.977,584.182 315.739,584.517 308.659,584.72L308.659,584.946C308.659,584.946 309.44,585.118 300.776,584.926C292.113,585.118 292.893,584.946 292.893,584.946L292.893,584.72C285.814,584.517 275.576,584.182 260.772,583.642C218.681,582.107 215.718,554.183 213.985,534.256C212.252,514.328 226.073,483.22 228.672,463.292C231.272,443.364 212.252,341.043 215.718,300C219.183,258.957 216.584,225.375 232.18,200.248C269.1,140.766 265.814,36.619 265.814,36.619C265.814,36.619 288.583,34.652 300,34.469Z" style="fill:rgb(24,183,190);stroke:rgb(7,42,64);stroke-width:8.7px;"/>
            </g>
            <g transform="matrix(0.827451,0,0,0.762941,16.2423,60.8769)">
                <path d="M104.386,246C104.386,244.224 103.057,242.782 101.419,242.782L84.186,242.782C82.548,242.782 81.219,244.224 81.219,246L81.219,252.435C81.219,254.211 82.548,255.653 84.186,255.653L101.419,255.653C103.057,255.653 104.386,254.211 104.386,252.435L104.386,246Z" style="fill:rgb(235,235,235);stroke:rgb(7,42,64);stroke-width:2.51px;"/>
            </g>
            <g transform="matrix(1,0,0,1,0,1)">
                <path d="M98.875,266.832C99.644,266.601 101.414,277.066 102.617,280.731C103.887,284.601 105.169,286.386 106.077,290.02C107.258,294.741 108.083,309.562 107.909,318.104C107.75,325.884 105.335,336.123 105.032,341.271C104.888,343.713 106.243,353.839 106.697,355.808C107.152,357.776 103.114,357.381 102.617,356.11C101.658,353.659 100.644,345.179 100.944,341.102C101.246,336.982 103.811,323.531 103.876,317.565C103.931,312.531 103.381,295.997 102.617,291.303C102.102,288.147 98.824,279.19 98.521,276.616C98.218,274.041 97.957,267.108 98.875,266.832Z" style="fill:white;"/>
            </g>
            <g transform="matrix(-1,0,0,1,186.171,1)">
                <path d="M98.875,266.832C99.644,266.601 101.414,277.066 102.617,280.731C103.887,284.601 105.169,286.386 106.077,290.02C107.258,294.741 108.083,309.562 107.909,318.104C107.75,325.884 105.335,336.123 105.032,341.271C104.888,343.713 106.243,353.839 106.697,355.808C107.152,357.776 103.114,357.381 102.617,356.11C101.658,353.659 100.644,345.179 100.944,341.102C101.246,336.982 103.811,323.531 103.876,317.565C103.931,312.531 103.381,295.997 102.617,291.303C102.102,288.147 98.824,279.19 98.521,276.616C98.218,274.041 97.957,267.108 98.875,266.832Z" style="fill:rgb(23,140,164);"/>
            </g>
        </g>
        <path d="M32.328,329.213C44.137,324.046 71,319.521 71,319.521C71,319.521 101.209,344.85 135,344.091C168.791,343.332 199,319.521 199,319.521C199,319.521 216.705,344.677 263,344.091C309.295,343.506 327,319.521 327,319.521C327,319.521 351.598,344.186 391,344.091C430.402,343.996 455,319.521 455,319.521C455,319.521 489.047,344.063 519,344.091C544.745,344.115 541.696,325.947 567.678,320.842C567.827,322.226 567.966,323.613 568.094,325.002C555.471,461.892 440.173,569.242 300,569.242C161.268,569.242 46.903,464.088 32.328,329.213Z" style="fill:rgb(24,183,190);stroke:rgb(7,42,64);stroke-width:2.96px;"/>
        <g transform="matrix(494.38,0,0,494.38,208.165,475.495)">
            <path d="M0.141,-0.197L0.141,-0.223C0.141,-0.261 0.147,-0.293 0.159,-0.317C0.17,-0.342 0.192,-0.368 0.224,-0.395C0.268,-0.432 0.296,-0.461 0.308,-0.479C0.319,-0.498 0.325,-0.521 0.325,-0.548C0.325,-0.581 0.315,-0.607 0.293,-0.625C0.272,-0.643 0.241,-0.652 0.201,-0.652C0.175,-0.652 0.15,-0.649 0.126,-0.643C0.102,-0.637 0.074,-0.626 0.042,-0.61L0.013,-0.676C0.075,-0.708 0.139,-0.724 0.206,-0.724C0.268,-0.724 0.317,-0.709 0.351,-0.678C0.386,-0.648 0.403,-0.604 0.403,-0.549C0.403,-0.525 0.4,-0.504 0.393,-0.486C0.387,-0.468 0.378,-0.451 0.365,-0.435C0.353,-0.419 0.326,-0.393 0.285,-0.357C0.252,-0.329 0.231,-0.306 0.22,-0.287C0.209,-0.269 0.204,-0.244 0.204,-0.213L0.204,-0.197L0.141,-0.197ZM0.117,-0.052C0.117,-0.096 0.137,-0.118 0.176,-0.118C0.195,-0.118 0.209,-0.112 0.219,-0.101C0.23,-0.09 0.235,-0.073 0.235,-0.052C0.235,-0.031 0.23,-0.015 0.219,-0.003C0.209,0.008 0.194,0.014 0.176,0.014C0.159,0.014 0.145,0.009 0.134,-0.001C0.123,-0.011 0.117,-0.028 0.117,-0.052Z" style="fill:rgb(7,42,64);fill-rule:nonzero;"/>
            <path d="M0.096,-0.052C0.096,-0.021 0.105,0.001 0.12,0.014C0.134,0.028 0.153,0.035 0.176,0.035C0.201,0.035 0.221,0.027 0.235,0.011C0.248,-0.004 0.256,-0.025 0.256,-0.052C0.256,-0.079 0.248,-0.1 0.235,-0.115C0.221,-0.131 0.202,-0.139 0.176,-0.139C0.149,-0.139 0.129,-0.131 0.116,-0.115C0.104,-0.101 0.096,-0.08 0.096,-0.052ZM0.117,-0.052C0.117,-0.096 0.137,-0.118 0.176,-0.118C0.195,-0.118 0.209,-0.112 0.219,-0.101C0.23,-0.09 0.235,-0.073 0.235,-0.052C0.235,-0.031 0.23,-0.015 0.219,-0.003C0.209,0.008 0.194,0.014 0.176,0.014C0.159,0.014 0.145,0.009 0.134,-0.001C0.123,-0.011 0.117,-0.028 0.117,-0.052ZM0.12,-0.197C0.12,-0.185 0.13,-0.176 0.141,-0.176L0.204,-0.176C0.216,-0.176 0.225,-0.185 0.225,-0.197L0.225,-0.213C0.225,-0.239 0.229,-0.261 0.238,-0.277C0.248,-0.294 0.268,-0.315 0.299,-0.341C0.299,-0.341 0.299,-0.341 0.299,-0.341C0.341,-0.378 0.369,-0.405 0.382,-0.422C0.396,-0.44 0.406,-0.459 0.413,-0.479C0.42,-0.499 0.424,-0.522 0.424,-0.549C0.424,-0.611 0.404,-0.66 0.365,-0.694C0.327,-0.728 0.274,-0.745 0.206,-0.745C0.136,-0.745 0.068,-0.728 0.003,-0.694C-0.006,-0.689 -0.01,-0.677 -0.006,-0.667L0.023,-0.601C0.025,-0.596 0.029,-0.592 0.035,-0.59C0.04,-0.588 0.046,-0.589 0.051,-0.591C0.081,-0.606 0.108,-0.617 0.131,-0.622C0.154,-0.628 0.177,-0.631 0.201,-0.631C0.235,-0.631 0.262,-0.624 0.28,-0.609C0.296,-0.595 0.304,-0.574 0.304,-0.548C0.304,-0.525 0.3,-0.506 0.29,-0.49C0.279,-0.473 0.252,-0.446 0.211,-0.411C0.211,-0.411 0.211,-0.411 0.21,-0.411C0.176,-0.381 0.152,-0.353 0.14,-0.326C0.127,-0.299 0.12,-0.265 0.12,-0.223L0.12,-0.197ZM0.141,-0.197L0.141,-0.223C0.141,-0.261 0.147,-0.293 0.159,-0.317C0.17,-0.342 0.192,-0.368 0.224,-0.395C0.268,-0.432 0.296,-0.461 0.308,-0.479C0.319,-0.498 0.325,-0.521 0.325,-0.548C0.325,-0.581 0.315,-0.607 0.293,-0.625C0.272,-0.643 0.241,-0.652 0.201,-0.652C0.175,-0.652 0.15,-0.649 0.126,-0.643C0.102,-0.637 0.074,-0.626 0.042,-0.61L0.013,-0.676C0.075,-0.708 0.139,-0.724 0.206,-0.724C0.268,-0.724 0.317,-0.709 0.351,-0.678C0.386,-0.648 0.403,-0.604 0.403,-0.549C0.403,-0.525 0.4,-0.504 0.393,-0.486C0.387,-0.468 0.378,-0.451 0.365,-0.435C0.353,-0.419 0.326,-0.393 0.285,-0.357C0.252,-0.329 0.231,-0.306 0.22,-0.287C0.209,-0.269 0.204,-0.244 0.204,-0.213L0.204,-0.197L0.141,-0.197Z" style="fill:white;"/>
        </g>
        <g transform="matrix(0.897473,0,0,0.897473,30.7581,30.7581)">
            <circle cx="300" cy="300" r="300" style="fill:none;stroke:rgb(7,42,64);stroke-width:18.13px;"/>
        </g>
    </g>
</svg>
