<?xml version="1.0" encoding="UTF-8" standalone="no"?>
<!DOCTYPE svg PUBLIC "-//W3C//DTD SVG 1.1//EN" "http://www.w3.org/Graphics/SVG/1.1/DTD/svg11.dtd">
<svg width="100%" height="100%" viewBox="0 0 610 343" version="1.1" xmlns="http://www.w3.org/2000/svg" xmlns:xlink="http://www.w3.org/1999/xlink" xml:space="preserve" xmlns:serif="http://www.serif.com/" style="fill-rule:evenodd;clip-rule:evenodd;stroke-linecap:round;stroke-linejoin:round;stroke-miterlimit:1.5;">
    <g transform="matrix(1,0,0,1,-12.189,-17.4991)">
        <g transform="matrix(1.20124,-0.698212,0.698212,1.20124,-132.706,3.12391)">
            <path d="M92.933,105.627C92.933,105.627 88.713,121.84 94.452,125.033C103.717,130.186 114.878,117.842 114.878,117.842L104.984,133.554C94.05,137.787 86.665,132.887 82.252,120.341L92.933,105.627Z" style="fill:rgb(24,183,190);stroke:rgb(7,42,64);stroke-width:1.44px;"/>
        </g>
        <g transform="matrix(2.84972,0,0,1,-158.096,-176.206)">
            <g transform="matrix(10.5274,0,0,30,59.3543,215.458)">
                <path d="M0.539,-0L0.04,-0L0.04,-0.105L0.219,-0.286C0.272,-0.34 0.307,-0.378 0.323,-0.399C0.34,-0.42 0.351,-0.44 0.358,-0.458C0.366,-0.475 0.369,-0.494 0.369,-0.513C0.369,-0.542 0.361,-0.563 0.345,-0.577C0.33,-0.591 0.309,-0.598 0.282,-0.598C0.255,-0.598 0.228,-0.592 0.202,-0.579C0.176,-0.566 0.148,-0.548 0.12,-0.525L0.038,-0.622C0.073,-0.652 0.102,-0.673 0.125,-0.686C0.149,-0.698 0.174,-0.707 0.201,-0.714C0.229,-0.721 0.259,-0.724 0.293,-0.724C0.338,-0.724 0.377,-0.716 0.411,-0.7C0.445,-0.683 0.472,-0.661 0.491,-0.631C0.51,-0.602 0.519,-0.569 0.519,-0.531C0.519,-0.498 0.513,-0.467 0.502,-0.438C0.49,-0.409 0.472,-0.38 0.448,-0.35C0.424,-0.319 0.381,-0.276 0.32,-0.22L0.228,-0.134L0.228,-0.127L0.539,-0.127L0.539,-0Z" style="fill-rule:nonzero;"/>
            </g>
            <g transform="matrix(10.5274,0,0,30,65.3633,215.458)">
                <path d="M0.535,-0.357C0.535,-0.232 0.515,-0.14 0.474,-0.08C0.433,-0.02 0.37,0.01 0.285,0.01C0.203,0.01 0.141,-0.021 0.099,-0.083C0.057,-0.145 0.036,-0.236 0.036,-0.357C0.036,-0.483 0.056,-0.576 0.097,-0.635C0.138,-0.695 0.201,-0.725 0.285,-0.725C0.368,-0.725 0.43,-0.694 0.472,-0.631C0.514,-0.569 0.535,-0.477 0.535,-0.357ZM0.186,-0.357C0.186,-0.269 0.194,-0.207 0.209,-0.169C0.224,-0.131 0.249,-0.112 0.285,-0.112C0.32,-0.112 0.346,-0.131 0.361,-0.169C0.377,-0.208 0.385,-0.27 0.385,-0.357C0.385,-0.444 0.377,-0.507 0.361,-0.546C0.345,-0.584 0.32,-0.603 0.285,-0.603C0.25,-0.603 0.224,-0.584 0.209,-0.546C0.194,-0.507 0.186,-0.444 0.186,-0.357Z" style="fill-rule:nonzero;"/>
            </g>
            <g transform="matrix(10.5274,0,0,30,74.1069,215.458)">
                <path d="M0,-0.546L0.163,-0.546L0.266,-0.239C0.275,-0.212 0.281,-0.181 0.284,-0.144L0.287,-0.144C0.291,-0.178 0.298,-0.209 0.308,-0.239L0.409,-0.546L0.569,-0.546L0.338,0.07C0.317,0.127 0.287,0.169 0.247,0.198C0.208,0.226 0.162,0.24 0.11,0.24C0.084,0.24 0.059,0.237 0.034,0.232L0.034,0.114C0.052,0.118 0.072,0.12 0.093,0.12C0.119,0.12 0.142,0.112 0.162,0.096C0.182,0.08 0.197,0.056 0.208,0.023L0.217,-0.004L0,-0.546Z" style="fill-rule:nonzero;"/>
            </g>
            <g transform="matrix(10.5274,0,0,30,80.0954,215.458)">
                <path d="M0.304,-0.45C0.273,-0.45 0.248,-0.44 0.23,-0.42C0.212,-0.4 0.202,-0.372 0.199,-0.335L0.408,-0.335C0.408,-0.372 0.398,-0.4 0.379,-0.42C0.361,-0.44 0.336,-0.45 0.304,-0.45ZM0.325,0.01C0.237,0.01 0.169,-0.014 0.119,-0.063C0.07,-0.111 0.045,-0.18 0.045,-0.269C0.045,-0.361 0.068,-0.431 0.114,-0.481C0.159,-0.531 0.222,-0.556 0.303,-0.556C0.38,-0.556 0.44,-0.534 0.483,-0.49C0.526,-0.446 0.548,-0.386 0.548,-0.308L0.548,-0.236L0.196,-0.236C0.197,-0.194 0.21,-0.16 0.233,-0.137C0.257,-0.113 0.29,-0.101 0.332,-0.101C0.365,-0.101 0.396,-0.104 0.425,-0.111C0.455,-0.118 0.485,-0.129 0.517,-0.144L0.517,-0.029C0.491,-0.016 0.463,-0.006 0.434,0C0.404,0.007 0.368,0.01 0.325,0.01Z" style="fill-rule:nonzero;"/>
            </g>
            <g transform="matrix(10.5274,0,0,30,86.3152,215.458)">
                <path d="M0.425,-0L0.396,-0.074L0.392,-0.074C0.367,-0.043 0.341,-0.021 0.315,-0.009C0.288,0.004 0.254,0.01 0.211,0.01C0.159,0.01 0.117,-0.005 0.087,-0.035C0.057,-0.065 0.042,-0.108 0.042,-0.163C0.042,-0.221 0.062,-0.264 0.103,-0.291C0.143,-0.319 0.204,-0.334 0.286,-0.337L0.381,-0.34L0.381,-0.364C0.381,-0.419 0.353,-0.447 0.296,-0.447C0.252,-0.447 0.201,-0.434 0.142,-0.407L0.093,-0.508C0.156,-0.541 0.225,-0.557 0.302,-0.557C0.375,-0.557 0.431,-0.541 0.47,-0.509C0.509,-0.477 0.529,-0.429 0.529,-0.364L0.529,-0L0.425,-0ZM0.381,-0.253L0.323,-0.251C0.28,-0.25 0.248,-0.242 0.227,-0.228C0.205,-0.213 0.195,-0.191 0.195,-0.162C0.195,-0.12 0.219,-0.099 0.267,-0.099C0.302,-0.099 0.329,-0.109 0.35,-0.129C0.371,-0.149 0.381,-0.175 0.381,-0.208L0.381,-0.253Z" style="fill-rule:nonzero;"/>
            </g>
            <g transform="matrix(10.5274,0,0,30,92.6738,215.458)">
                <path d="M0.383,-0.556C0.403,-0.556 0.42,-0.555 0.433,-0.552L0.422,-0.412C0.41,-0.415 0.395,-0.417 0.378,-0.417C0.33,-0.417 0.293,-0.405 0.267,-0.38C0.24,-0.356 0.227,-0.322 0.227,-0.278L0.227,-0L0.078,-0L0.078,-0.546L0.191,-0.546L0.213,-0.454L0.22,-0.454C0.237,-0.485 0.26,-0.509 0.289,-0.528C0.318,-0.547 0.349,-0.556 0.383,-0.556Z" style="fill-rule:nonzero;"/>
            </g>
            <g transform="matrix(10.5274,0,0,30,97.4542,215.458)">
                <path d="M0.459,-0.162C0.459,-0.106 0.44,-0.063 0.401,-0.034C0.362,-0.005 0.304,0.01 0.226,0.01C0.186,0.01 0.153,0.007 0.125,0.002C0.097,-0.004 0.07,-0.012 0.046,-0.022L0.046,-0.145C0.074,-0.132 0.105,-0.121 0.139,-0.112C0.174,-0.104 0.205,-0.099 0.231,-0.099C0.285,-0.099 0.312,-0.115 0.312,-0.146C0.312,-0.158 0.308,-0.167 0.301,-0.175C0.294,-0.182 0.282,-0.19 0.264,-0.199C0.247,-0.209 0.223,-0.22 0.194,-0.232C0.152,-0.25 0.121,-0.266 0.101,-0.281C0.082,-0.296 0.067,-0.313 0.058,-0.332C0.049,-0.352 0.045,-0.375 0.045,-0.404C0.045,-0.452 0.064,-0.49 0.101,-0.516C0.139,-0.543 0.192,-0.556 0.261,-0.556C0.327,-0.556 0.391,-0.542 0.453,-0.513L0.408,-0.406C0.381,-0.417 0.355,-0.427 0.332,-0.435C0.308,-0.442 0.284,-0.446 0.259,-0.446C0.215,-0.446 0.193,-0.434 0.193,-0.41C0.193,-0.397 0.2,-0.385 0.214,-0.375C0.228,-0.366 0.259,-0.351 0.307,-0.332C0.35,-0.315 0.381,-0.299 0.401,-0.284C0.421,-0.269 0.435,-0.251 0.445,-0.232C0.454,-0.212 0.459,-0.189 0.459,-0.162Z" style="fill-rule:nonzero;"/>
            </g>
        </g>
        <g transform="matrix(2.79742,0,0,1,275.397,-176.206)">
            <g transform="matrix(10.7242,0,0,30,55.8885,215.458)">
                <path d="M0.555,-0.148L0.469,-0.148L0.469,-0L0.322,-0L0.322,-0.148L0.017,-0.148L0.017,-0.253L0.33,-0.714L0.469,-0.714L0.469,-0.265L0.555,-0.265L0.555,-0.148ZM0.322,-0.265L0.322,-0.386C0.322,-0.406 0.323,-0.436 0.324,-0.474C0.326,-0.513 0.327,-0.535 0.328,-0.541L0.324,-0.541C0.312,-0.514 0.298,-0.488 0.281,-0.463L0.15,-0.265L0.322,-0.265Z" style="fill-rule:nonzero;"/>
            </g>
            <g transform="matrix(10.7242,0,0,30,62.0099,215.458)">
                <path d="M0.3,-0.456C0.369,-0.456 0.424,-0.437 0.465,-0.398C0.505,-0.359 0.526,-0.306 0.526,-0.239C0.526,-0.159 0.501,-0.098 0.452,-0.055C0.403,-0.012 0.333,0.01 0.241,0.01C0.162,0.01 0.098,-0.003 0.049,-0.029L0.049,-0.159C0.075,-0.146 0.104,-0.134 0.139,-0.126C0.173,-0.117 0.205,-0.113 0.236,-0.113C0.328,-0.113 0.374,-0.151 0.374,-0.226C0.374,-0.298 0.326,-0.334 0.231,-0.334C0.214,-0.334 0.195,-0.332 0.174,-0.329C0.153,-0.325 0.136,-0.322 0.123,-0.318L0.063,-0.35L0.09,-0.714L0.477,-0.714L0.477,-0.586L0.222,-0.586L0.209,-0.446L0.226,-0.449C0.246,-0.454 0.271,-0.456 0.3,-0.456Z" style="fill-rule:nonzero;"/>
            </g>
            <g transform="matrix(10.7242,0,0,30,68.1313,215.458)">
                <path d="M0.535,-0.357C0.535,-0.232 0.515,-0.14 0.474,-0.08C0.433,-0.02 0.37,0.01 0.285,0.01C0.203,0.01 0.141,-0.021 0.099,-0.083C0.057,-0.145 0.036,-0.236 0.036,-0.357C0.036,-0.483 0.056,-0.576 0.097,-0.635C0.138,-0.695 0.201,-0.725 0.285,-0.725C0.368,-0.725 0.43,-0.694 0.472,-0.631C0.514,-0.569 0.535,-0.477 0.535,-0.357ZM0.186,-0.357C0.186,-0.269 0.194,-0.207 0.209,-0.169C0.224,-0.131 0.249,-0.112 0.285,-0.112C0.32,-0.112 0.346,-0.131 0.361,-0.169C0.377,-0.208 0.385,-0.27 0.385,-0.357C0.385,-0.444 0.377,-0.507 0.361,-0.546C0.345,-0.584 0.32,-0.603 0.285,-0.603C0.25,-0.603 0.224,-0.584 0.209,-0.546C0.194,-0.507 0.186,-0.444 0.186,-0.357Z" style="fill-rule:nonzero;"/>
            </g>
            <g transform="matrix(10.7242,0,0,30,77.0384,215.458)">
                <path d="M0,-0.546L0.163,-0.546L0.266,-0.239C0.275,-0.212 0.281,-0.181 0.284,-0.144L0.287,-0.144C0.291,-0.178 0.298,-0.209 0.308,-0.239L0.409,-0.546L0.569,-0.546L0.338,0.07C0.317,0.127 0.287,0.169 0.247,0.198C0.208,0.226 0.162,0.24 0.11,0.24C0.084,0.24 0.059,0.237 0.034,0.232L0.034,0.114C0.052,0.118 0.072,0.12 0.093,0.12C0.119,0.12 0.142,0.112 0.162,0.096C0.182,0.08 0.197,0.056 0.208,0.023L0.217,-0.004L0,-0.546Z" style="fill-rule:nonzero;"/>
            </g>
            <g transform="matrix(10.7242,0,0,30,83.1388,215.458)">
                <path d="M0.304,-0.45C0.273,-0.45 0.248,-0.44 0.23,-0.42C0.212,-0.4 0.202,-0.372 0.199,-0.335L0.408,-0.335C0.408,-0.372 0.398,-0.4 0.379,-0.42C0.361,-0.44 0.336,-0.45 0.304,-0.45ZM0.325,0.01C0.237,0.01 0.169,-0.014 0.119,-0.063C0.07,-0.111 0.045,-0.18 0.045,-0.269C0.045,-0.361 0.068,-0.431 0.114,-0.481C0.159,-0.531 0.222,-0.556 0.303,-0.556C0.38,-0.556 0.44,-0.534 0.483,-0.49C0.526,-0.446 0.548,-0.386 0.548,-0.308L0.548,-0.236L0.196,-0.236C0.197,-0.194 0.21,-0.16 0.233,-0.137C0.257,-0.113 0.29,-0.101 0.332,-0.101C0.365,-0.101 0.396,-0.104 0.425,-0.111C0.455,-0.118 0.485,-0.129 0.517,-0.144L0.517,-0.029C0.491,-0.016 0.463,-0.006 0.434,0C0.404,0.007 0.368,0.01 0.325,0.01Z" style="fill-rule:nonzero;"/>
            </g>
            <g transform="matrix(10.7242,0,0,30,89.4748,215.458)">
                <path d="M0.425,-0L0.396,-0.074L0.392,-0.074C0.367,-0.043 0.341,-0.021 0.315,-0.009C0.288,0.004 0.254,0.01 0.211,0.01C0.159,0.01 0.117,-0.005 0.087,-0.035C0.057,-0.065 0.042,-0.108 0.042,-0.163C0.042,-0.221 0.062,-0.264 0.103,-0.291C0.143,-0.319 0.204,-0.334 0.286,-0.337L0.381,-0.34L0.381,-0.364C0.381,-0.419 0.353,-0.447 0.296,-0.447C0.252,-0.447 0.201,-0.434 0.142,-0.407L0.093,-0.508C0.156,-0.541 0.225,-0.557 0.302,-0.557C0.375,-0.557 0.431,-0.541 0.47,-0.509C0.509,-0.477 0.529,-0.429 0.529,-0.364L0.529,-0L0.425,-0ZM0.381,-0.253L0.323,-0.251C0.28,-0.25 0.248,-0.242 0.227,-0.228C0.205,-0.213 0.195,-0.191 0.195,-0.162C0.195,-0.12 0.219,-0.099 0.267,-0.099C0.302,-0.099 0.329,-0.109 0.35,-0.129C0.371,-0.149 0.381,-0.175 0.381,-0.208L0.381,-0.253Z" style="fill-rule:nonzero;"/>
            </g>
            <g transform="matrix(10.7242,0,0,30,95.9523,215.458)">
                <path d="M0.383,-0.556C0.403,-0.556 0.42,-0.555 0.433,-0.552L0.422,-0.412C0.41,-0.415 0.395,-0.417 0.378,-0.417C0.33,-0.417 0.293,-0.405 0.267,-0.38C0.24,-0.356 0.227,-0.322 0.227,-0.278L0.227,-0L0.078,-0L0.078,-0.546L0.191,-0.546L0.213,-0.454L0.22,-0.454C0.237,-0.485 0.26,-0.509 0.289,-0.528C0.318,-0.547 0.349,-0.556 0.383,-0.556Z" style="fill-rule:nonzero;"/>
            </g>
            <g transform="matrix(10.7242,0,0,30,100.822,215.458)">
                <path d="M0.459,-0.162C0.459,-0.106 0.44,-0.063 0.401,-0.034C0.362,-0.005 0.304,0.01 0.226,0.01C0.186,0.01 0.153,0.007 0.125,0.002C0.097,-0.004 0.07,-0.012 0.046,-0.022L0.046,-0.145C0.074,-0.132 0.105,-0.121 0.139,-0.112C0.174,-0.104 0.205,-0.099 0.231,-0.099C0.285,-0.099 0.312,-0.115 0.312,-0.146C0.312,-0.158 0.308,-0.167 0.301,-0.175C0.294,-0.182 0.282,-0.19 0.264,-0.199C0.247,-0.209 0.223,-0.22 0.194,-0.232C0.152,-0.25 0.121,-0.266 0.101,-0.281C0.082,-0.296 0.067,-0.313 0.058,-0.332C0.049,-0.352 0.045,-0.375 0.045,-0.404C0.045,-0.452 0.064,-0.49 0.101,-0.516C0.139,-0.543 0.192,-0.556 0.261,-0.556C0.327,-0.556 0.391,-0.542 0.453,-0.513L0.408,-0.406C0.381,-0.417 0.355,-0.427 0.332,-0.435C0.308,-0.442 0.284,-0.446 0.259,-0.446C0.215,-0.446 0.193,-0.434 0.193,-0.41C0.193,-0.397 0.2,-0.385 0.214,-0.375C0.228,-0.366 0.259,-0.351 0.307,-0.332C0.35,-0.315 0.381,-0.299 0.401,-0.284C0.421,-0.269 0.435,-0.251 0.445,-0.232C0.454,-0.212 0.459,-0.189 0.459,-0.162Z" style="fill-rule:nonzero;"/>
            </g>
        </g>
        <g transform="matrix(2.65841,0,0,1,36.6787,137.036)">
            <g transform="matrix(11.2849,0,0,30,54.5743,215.458)">
                <path d="M0.539,-0L0.04,-0L0.04,-0.105L0.219,-0.286C0.272,-0.34 0.307,-0.378 0.323,-0.399C0.34,-0.42 0.351,-0.44 0.358,-0.458C0.366,-0.475 0.369,-0.494 0.369,-0.513C0.369,-0.542 0.361,-0.563 0.345,-0.577C0.33,-0.591 0.309,-0.598 0.282,-0.598C0.255,-0.598 0.228,-0.592 0.202,-0.579C0.176,-0.566 0.148,-0.548 0.12,-0.525L0.038,-0.622C0.073,-0.652 0.102,-0.673 0.125,-0.686C0.149,-0.698 0.174,-0.707 0.201,-0.714C0.229,-0.721 0.259,-0.724 0.293,-0.724C0.338,-0.724 0.377,-0.716 0.411,-0.7C0.445,-0.683 0.472,-0.661 0.491,-0.631C0.51,-0.602 0.519,-0.569 0.519,-0.531C0.519,-0.498 0.513,-0.467 0.502,-0.438C0.49,-0.409 0.472,-0.38 0.448,-0.35C0.424,-0.319 0.381,-0.276 0.32,-0.22L0.228,-0.134L0.228,-0.127L0.539,-0.127L0.539,-0Z" style="fill-rule:nonzero;"/>
            </g>
            <g transform="matrix(11.2849,0,0,30,61.0158,215.458)">
                <path d="M0.535,-0.357C0.535,-0.232 0.515,-0.14 0.474,-0.08C0.433,-0.02 0.37,0.01 0.285,0.01C0.203,0.01 0.141,-0.021 0.099,-0.083C0.057,-0.145 0.036,-0.236 0.036,-0.357C0.036,-0.483 0.056,-0.576 0.097,-0.635C0.138,-0.695 0.201,-0.725 0.285,-0.725C0.368,-0.725 0.43,-0.694 0.472,-0.631C0.514,-0.569 0.535,-0.477 0.535,-0.357ZM0.186,-0.357C0.186,-0.269 0.194,-0.207 0.209,-0.169C0.224,-0.131 0.249,-0.112 0.285,-0.112C0.32,-0.112 0.346,-0.131 0.361,-0.169C0.377,-0.208 0.385,-0.27 0.385,-0.357C0.385,-0.444 0.377,-0.507 0.361,-0.546C0.345,-0.584 0.32,-0.603 0.285,-0.603C0.25,-0.603 0.224,-0.584 0.209,-0.546C0.194,-0.507 0.186,-0.444 0.186,-0.357Z" style="fill-rule:nonzero;"/>
            </g>
            <g transform="matrix(11.2849,0,0,30,67.4572,215.458)">
                <path d="M0.535,-0.357C0.535,-0.232 0.515,-0.14 0.474,-0.08C0.433,-0.02 0.37,0.01 0.285,0.01C0.203,0.01 0.141,-0.021 0.099,-0.083C0.057,-0.145 0.036,-0.236 0.036,-0.357C0.036,-0.483 0.056,-0.576 0.097,-0.635C0.138,-0.695 0.201,-0.725 0.285,-0.725C0.368,-0.725 0.43,-0.694 0.472,-0.631C0.514,-0.569 0.535,-0.477 0.535,-0.357ZM0.186,-0.357C0.186,-0.269 0.194,-0.207 0.209,-0.169C0.224,-0.131 0.249,-0.112 0.285,-0.112C0.32,-0.112 0.346,-0.131 0.361,-0.169C0.377,-0.208 0.385,-0.27 0.385,-0.357C0.385,-0.444 0.377,-0.507 0.361,-0.546C0.345,-0.584 0.32,-0.603 0.285,-0.603C0.25,-0.603 0.224,-0.584 0.209,-0.546C0.194,-0.507 0.186,-0.444 0.186,-0.357Z" style="fill-rule:nonzero;"/>
            </g>
            <g transform="matrix(11.2849,0,0,30,76.8301,215.458)">
                <path d="M0,-0.546L0.163,-0.546L0.266,-0.239C0.275,-0.212 0.281,-0.181 0.284,-0.144L0.287,-0.144C0.291,-0.178 0.298,-0.209 0.308,-0.239L0.409,-0.546L0.569,-0.546L0.338,0.07C0.317,0.127 0.287,0.169 0.247,0.198C0.208,0.226 0.162,0.24 0.11,0.24C0.084,0.24 0.059,0.237 0.034,0.232L0.034,0.114C0.052,0.118 0.072,0.12 0.093,0.12C0.119,0.12 0.142,0.112 0.162,0.096C0.182,0.08 0.197,0.056 0.208,0.023L0.217,-0.004L0,-0.546Z" style="fill-rule:nonzero;"/>
            </g>
            <g transform="matrix(11.2849,0,0,30,83.2496,215.458)">
                <path d="M0.304,-0.45C0.273,-0.45 0.248,-0.44 0.23,-0.42C0.212,-0.4 0.202,-0.372 0.199,-0.335L0.408,-0.335C0.408,-0.372 0.398,-0.4 0.379,-0.42C0.361,-0.44 0.336,-0.45 0.304,-0.45ZM0.325,0.01C0.237,0.01 0.169,-0.014 0.119,-0.063C0.07,-0.111 0.045,-0.18 0.045,-0.269C0.045,-0.361 0.068,-0.431 0.114,-0.481C0.159,-0.531 0.222,-0.556 0.303,-0.556C0.38,-0.556 0.44,-0.534 0.483,-0.49C0.526,-0.446 0.548,-0.386 0.548,-0.308L0.548,-0.236L0.196,-0.236C0.197,-0.194 0.21,-0.16 0.233,-0.137C0.257,-0.113 0.29,-0.101 0.332,-0.101C0.365,-0.101 0.396,-0.104 0.425,-0.111C0.455,-0.118 0.485,-0.129 0.517,-0.144L0.517,-0.029C0.491,-0.016 0.463,-0.006 0.434,0C0.404,0.007 0.368,0.01 0.325,0.01Z" style="fill-rule:nonzero;"/>
            </g>
            <g transform="matrix(11.2849,0,0,30,89.9169,215.458)">
                <path d="M0.425,-0L0.396,-0.074L0.392,-0.074C0.367,-0.043 0.341,-0.021 0.315,-0.009C0.288,0.004 0.254,0.01 0.211,0.01C0.159,0.01 0.117,-0.005 0.087,-0.035C0.057,-0.065 0.042,-0.108 0.042,-0.163C0.042,-0.221 0.062,-0.264 0.103,-0.291C0.143,-0.319 0.204,-0.334 0.286,-0.337L0.381,-0.34L0.381,-0.364C0.381,-0.419 0.353,-0.447 0.296,-0.447C0.252,-0.447 0.201,-0.434 0.142,-0.407L0.093,-0.508C0.156,-0.541 0.225,-0.557 0.302,-0.557C0.375,-0.557 0.431,-0.541 0.47,-0.509C0.509,-0.477 0.529,-0.429 0.529,-0.364L0.529,-0L0.425,-0ZM0.381,-0.253L0.323,-0.251C0.28,-0.25 0.248,-0.242 0.227,-0.228C0.205,-0.213 0.195,-0.191 0.195,-0.162C0.195,-0.12 0.219,-0.099 0.267,-0.099C0.302,-0.099 0.329,-0.109 0.35,-0.129C0.371,-0.149 0.381,-0.175 0.381,-0.208L0.381,-0.253Z" style="fill-rule:nonzero;"/>
            </g>
            <g transform="matrix(11.2849,0,0,30,96.7331,215.458)">
                <path d="M0.383,-0.556C0.403,-0.556 0.42,-0.555 0.433,-0.552L0.422,-0.412C0.41,-0.415 0.395,-0.417 0.378,-0.417C0.33,-0.417 0.293,-0.405 0.267,-0.38C0.24,-0.356 0.227,-0.322 0.227,-0.278L0.227,-0L0.078,-0L0.078,-0.546L0.191,-0.546L0.213,-0.454L0.22,-0.454C0.237,-0.485 0.26,-0.509 0.289,-0.528C0.318,-0.547 0.349,-0.556 0.383,-0.556Z" style="fill-rule:nonzero;"/>
            </g>
            <g transform="matrix(11.2849,0,0,30,101.858,215.458)">
                <path d="M0.459,-0.162C0.459,-0.106 0.44,-0.063 0.401,-0.034C0.362,-0.005 0.304,0.01 0.226,0.01C0.186,0.01 0.153,0.007 0.125,0.002C0.097,-0.004 0.07,-0.012 0.046,-0.022L0.046,-0.145C0.074,-0.132 0.105,-0.121 0.139,-0.112C0.174,-0.104 0.205,-0.099 0.231,-0.099C0.285,-0.099 0.312,-0.115 0.312,-0.146C0.312,-0.158 0.308,-0.167 0.301,-0.175C0.294,-0.182 0.282,-0.19 0.264,-0.199C0.247,-0.209 0.223,-0.22 0.194,-0.232C0.152,-0.25 0.121,-0.266 0.101,-0.281C0.082,-0.296 0.067,-0.313 0.058,-0.332C0.049,-0.352 0.045,-0.375 0.045,-0.404C0.045,-0.452 0.064,-0.49 0.101,-0.516C0.139,-0.543 0.192,-0.556 0.261,-0.556C0.327,-0.556 0.391,-0.542 0.453,-0.513L0.408,-0.406C0.381,-0.417 0.355,-0.427 0.332,-0.435C0.308,-0.442 0.284,-0.446 0.259,-0.446C0.215,-0.446 0.193,-0.434 0.193,-0.41C0.193,-0.397 0.2,-0.385 0.214,-0.375C0.228,-0.366 0.259,-0.351 0.307,-0.332C0.35,-0.315 0.381,-0.299 0.401,-0.284C0.421,-0.269 0.435,-0.251 0.445,-0.232C0.454,-0.212 0.459,-0.189 0.459,-0.162Z" style="fill-rule:nonzero;"/>
            </g>
        </g>
        <g transform="matrix(3.28524,0,0,1,286.617,137.036)">
            <g transform="matrix(9.13174,0,0,30,59.6204,215.458)">
                <path d="M0.3,-0.456C0.369,-0.456 0.424,-0.437 0.465,-0.398C0.505,-0.359 0.526,-0.306 0.526,-0.239C0.526,-0.159 0.501,-0.098 0.452,-0.055C0.403,-0.012 0.333,0.01 0.241,0.01C0.162,0.01 0.098,-0.003 0.049,-0.029L0.049,-0.159C0.075,-0.146 0.104,-0.134 0.139,-0.126C0.173,-0.117 0.205,-0.113 0.236,-0.113C0.328,-0.113 0.374,-0.151 0.374,-0.226C0.374,-0.298 0.326,-0.334 0.231,-0.334C0.214,-0.334 0.195,-0.332 0.174,-0.329C0.153,-0.325 0.136,-0.322 0.123,-0.318L0.063,-0.35L0.09,-0.714L0.477,-0.714L0.477,-0.586L0.222,-0.586L0.209,-0.446L0.226,-0.449C0.246,-0.454 0.271,-0.456 0.3,-0.456Z" style="fill-rule:nonzero;"/>
            </g>
            <g transform="matrix(9.13174,0,0,30,64.8328,215.458)">
                <path d="M0.535,-0.357C0.535,-0.232 0.515,-0.14 0.474,-0.08C0.433,-0.02 0.37,0.01 0.285,0.01C0.203,0.01 0.141,-0.021 0.099,-0.083C0.057,-0.145 0.036,-0.236 0.036,-0.357C0.036,-0.483 0.056,-0.576 0.097,-0.635C0.138,-0.695 0.201,-0.725 0.285,-0.725C0.368,-0.725 0.43,-0.694 0.472,-0.631C0.514,-0.569 0.535,-0.477 0.535,-0.357ZM0.186,-0.357C0.186,-0.269 0.194,-0.207 0.209,-0.169C0.224,-0.131 0.249,-0.112 0.285,-0.112C0.32,-0.112 0.346,-0.131 0.361,-0.169C0.377,-0.208 0.385,-0.27 0.385,-0.357C0.385,-0.444 0.377,-0.507 0.361,-0.546C0.345,-0.584 0.32,-0.603 0.285,-0.603C0.25,-0.603 0.224,-0.584 0.209,-0.546C0.194,-0.507 0.186,-0.444 0.186,-0.357Z" style="fill-rule:nonzero;"/>
            </g>
            <g transform="matrix(9.13174,0,0,30,70.0452,215.458)">
                <path d="M0.535,-0.357C0.535,-0.232 0.515,-0.14 0.474,-0.08C0.433,-0.02 0.37,0.01 0.285,0.01C0.203,0.01 0.141,-0.021 0.099,-0.083C0.057,-0.145 0.036,-0.236 0.036,-0.357C0.036,-0.483 0.056,-0.576 0.097,-0.635C0.138,-0.695 0.201,-0.725 0.285,-0.725C0.368,-0.725 0.43,-0.694 0.472,-0.631C0.514,-0.569 0.535,-0.477 0.535,-0.357ZM0.186,-0.357C0.186,-0.269 0.194,-0.207 0.209,-0.169C0.224,-0.131 0.249,-0.112 0.285,-0.112C0.32,-0.112 0.346,-0.131 0.361,-0.169C0.377,-0.208 0.385,-0.27 0.385,-0.357C0.385,-0.444 0.377,-0.507 0.361,-0.546C0.345,-0.584 0.32,-0.603 0.285,-0.603C0.25,-0.603 0.224,-0.584 0.209,-0.546C0.194,-0.507 0.186,-0.444 0.186,-0.357Z" style="fill-rule:nonzero;"/>
            </g>
            <g transform="matrix(9.13174,0,0,30,77.6297,215.458)">
                <path d="M0,-0.546L0.163,-0.546L0.266,-0.239C0.275,-0.212 0.281,-0.181 0.284,-0.144L0.287,-0.144C0.291,-0.178 0.298,-0.209 0.308,-0.239L0.409,-0.546L0.569,-0.546L0.338,0.07C0.317,0.127 0.287,0.169 0.247,0.198C0.208,0.226 0.162,0.24 0.11,0.24C0.084,0.24 0.059,0.237 0.034,0.232L0.034,0.114C0.052,0.118 0.072,0.12 0.093,0.12C0.119,0.12 0.142,0.112 0.162,0.096C0.182,0.08 0.197,0.056 0.208,0.023L0.217,-0.004L0,-0.546Z" style="fill-rule:nonzero;"/>
            </g>
            <g transform="matrix(9.13174,0,0,30,82.8243,215.458)">
                <path d="M0.304,-0.45C0.273,-0.45 0.248,-0.44 0.23,-0.42C0.212,-0.4 0.202,-0.372 0.199,-0.335L0.408,-0.335C0.408,-0.372 0.398,-0.4 0.379,-0.42C0.361,-0.44 0.336,-0.45 0.304,-0.45ZM0.325,0.01C0.237,0.01 0.169,-0.014 0.119,-0.063C0.07,-0.111 0.045,-0.18 0.045,-0.269C0.045,-0.361 0.068,-0.431 0.114,-0.481C0.159,-0.531 0.222,-0.556 0.303,-0.556C0.38,-0.556 0.44,-0.534 0.483,-0.49C0.526,-0.446 0.548,-0.386 0.548,-0.308L0.548,-0.236L0.196,-0.236C0.197,-0.194 0.21,-0.16 0.233,-0.137C0.257,-0.113 0.29,-0.101 0.332,-0.101C0.365,-0.101 0.396,-0.104 0.425,-0.111C0.455,-0.118 0.485,-0.129 0.517,-0.144L0.517,-0.029C0.491,-0.016 0.463,-0.006 0.434,0C0.404,0.007 0.368,0.01 0.325,0.01Z" style="fill-rule:nonzero;"/>
            </g>
            <g transform="matrix(9.13174,0,0,30,88.2195,215.458)">
                <path d="M0.425,-0L0.396,-0.074L0.392,-0.074C0.367,-0.043 0.341,-0.021 0.315,-0.009C0.288,0.004 0.254,0.01 0.211,0.01C0.159,0.01 0.117,-0.005 0.087,-0.035C0.057,-0.065 0.042,-0.108 0.042,-0.163C0.042,-0.221 0.062,-0.264 0.103,-0.291C0.143,-0.319 0.204,-0.334 0.286,-0.337L0.381,-0.34L0.381,-0.364C0.381,-0.419 0.353,-0.447 0.296,-0.447C0.252,-0.447 0.201,-0.434 0.142,-0.407L0.093,-0.508C0.156,-0.541 0.225,-0.557 0.302,-0.557C0.375,-0.557 0.431,-0.541 0.47,-0.509C0.509,-0.477 0.529,-0.429 0.529,-0.364L0.529,-0L0.425,-0ZM0.381,-0.253L0.323,-0.251C0.28,-0.25 0.248,-0.242 0.227,-0.228C0.205,-0.213 0.195,-0.191 0.195,-0.162C0.195,-0.12 0.219,-0.099 0.267,-0.099C0.302,-0.099 0.329,-0.109 0.35,-0.129C0.371,-0.149 0.381,-0.175 0.381,-0.208L0.381,-0.253Z" style="fill-rule:nonzero;"/>
            </g>
            <g transform="matrix(9.13174,0,0,30,93.7351,215.458)">
                <path d="M0.383,-0.556C0.403,-0.556 0.42,-0.555 0.433,-0.552L0.422,-0.412C0.41,-0.415 0.395,-0.417 0.378,-0.417C0.33,-0.417 0.293,-0.405 0.267,-0.38C0.24,-0.356 0.227,-0.322 0.227,-0.278L0.227,-0L0.078,-0L0.078,-0.546L0.191,-0.546L0.213,-0.454L0.22,-0.454C0.237,-0.485 0.26,-0.509 0.289,-0.528C0.318,-0.547 0.349,-0.556 0.383,-0.556Z" style="fill-rule:nonzero;"/>
            </g>
            <g transform="matrix(9.13174,0,0,30,97.8818,215.458)">
                <path d="M0.459,-0.162C0.459,-0.106 0.44,-0.063 0.401,-0.034C0.362,-0.005 0.304,0.01 0.226,0.01C0.186,0.01 0.153,0.007 0.125,0.002C0.097,-0.004 0.07,-0.012 0.046,-0.022L0.046,-0.145C0.074,-0.132 0.105,-0.121 0.139,-0.112C0.174,-0.104 0.205,-0.099 0.231,-0.099C0.285,-0.099 0.312,-0.115 0.312,-0.146C0.312,-0.158 0.308,-0.167 0.301,-0.175C0.294,-0.182 0.282,-0.19 0.264,-0.199C0.247,-0.209 0.223,-0.22 0.194,-0.232C0.152,-0.25 0.121,-0.266 0.101,-0.281C0.082,-0.296 0.067,-0.313 0.058,-0.332C0.049,-0.352 0.045,-0.375 0.045,-0.404C0.045,-0.452 0.064,-0.49 0.101,-0.516C0.139,-0.543 0.192,-0.556 0.261,-0.556C0.327,-0.556 0.391,-0.542 0.453,-0.513L0.408,-0.406C0.381,-0.417 0.355,-0.427 0.332,-0.435C0.308,-0.442 0.284,-0.446 0.259,-0.446C0.215,-0.446 0.193,-0.434 0.193,-0.41C0.193,-0.397 0.2,-0.385 0.214,-0.375C0.228,-0.366 0.259,-0.351 0.307,-0.332C0.35,-0.315 0.381,-0.299 0.401,-0.284C0.421,-0.269 0.435,-0.251 0.445,-0.232C0.454,-0.212 0.459,-0.189 0.459,-0.162Z" style="fill-rule:nonzero;"/>
            </g>
        </g>
        <g transform="matrix(1.20124,-0.698212,0.698212,1.20124,-132.706,3.12391)">
            <path d="M85.746,101.526C85.746,101.526 74.184,123.335 70.036,131.595C67.558,136.528 55.721,149.555 55.721,149.555L92.061,173.904C92.061,173.904 95.044,165.589 102.252,153.736C108.921,142.768 118.181,121.618 120.225,121.618C122.269,121.618 114.991,117.802 114.991,117.802C114.991,117.802 101.6,136.381 91.834,128.659C82.067,120.937 92.92,105.588 92.92,105.588L85.746,101.526Z" style="fill:rgb(24,183,190);stroke:rgb(7,42,64);stroke-width:1.44px;"/>
        </g>
        <g transform="matrix(1.20124,-0.698212,0.698212,1.20124,-132.706,3.12391)">
            <path d="M120.531,121.127C118.73,125.03 108.988,149.425 106.717,155.287C104.924,159.915 100.454,170.386 100.454,170.386C100.454,170.386 97.827,170.144 96.657,170.634C95.256,171.22 92.047,173.904 92.047,173.904" style="fill:rgb(24,183,190);stroke:rgb(7,42,64);stroke-width:1.44px;"/>
        </g>
        <path d="M267.128,320.504L212.81,267.562C212.81,267.562 211.338,266.142 210.229,264.294C209.259,262.678 208.647,260.772 208.81,259.045C208.964,257.421 209.741,255.878 210.804,254.597C211.865,253.318 213.192,252.345 213.654,251.938C218.424,247.744 238.881,232.031 238.881,232.031C240.437,230.837 244.767,236.476 243.211,237.671C243.211,237.671 223.049,253.144 218.349,257.277C218.055,257.536 217.282,258.073 216.566,258.814C216.304,259.084 215.924,259.338 215.888,259.715C215.858,260.039 216.143,260.333 216.325,260.636C216.94,261.66 217.752,262.45 217.752,262.45C217.756,262.454 217.759,262.457 217.763,262.46L274.633,317.891C272.216,318.935 269.71,319.811 267.128,320.504Z" style="fill:rgb(24,183,190);stroke:rgb(7,42,64);stroke-width:2px;"/>
        <path d="M291.303,306.718L246.246,262.801C246.246,262.801 244.773,261.382 243.664,259.534C242.694,257.918 242.082,256.011 242.245,254.285C242.399,252.661 243.176,251.117 244.239,249.836C245.3,248.558 246.627,247.584 247.089,247.178C251.859,242.983 272.316,227.271 272.316,227.271C273.872,226.076 278.202,231.715 276.646,232.91C276.646,232.91 256.484,248.384 251.785,252.517C251.491,252.775 250.717,253.313 250.001,254.053C249.74,254.324 249.359,254.577 249.324,254.955C249.293,255.278 249.578,255.573 249.76,255.875C250.375,256.9 251.188,257.69 251.188,257.69C251.191,257.693 251.194,257.697 251.198,257.7L296.071,301.436C294.595,303.298 293.002,305.062 291.303,306.718Z" style="fill:rgb(24,183,190);stroke:rgb(7,42,64);stroke-width:2px;"/>
        <g transform="matrix(0.166581,0,0,0.166581,452.185,53.6968)">
            <path d="M300,34.469C311.654,34.283 335.739,35.502 335.739,35.502C335.739,35.502 332.453,140.766 369.373,200.248C384.969,225.375 382.369,258.957 385.835,300C389.301,341.043 370.281,443.364 372.88,463.292C375.48,483.22 389.301,514.328 387.568,534.256C385.835,554.183 382.871,582.107 340.781,583.642C325.977,584.182 315.739,584.517 308.659,584.72L308.659,584.946C308.659,584.946 309.44,585.118 300.776,584.926C292.113,585.118 292.893,584.946 292.893,584.946L292.893,584.72C285.814,584.517 275.576,584.182 260.772,583.642C218.681,582.107 215.718,554.183 213.985,534.256C212.252,514.328 226.073,483.22 228.672,463.292C231.272,443.364 212.252,341.043 215.718,300C219.183,258.957 216.584,225.375 232.18,200.248C269.1,140.766 265.814,36.619 265.814,36.619C265.814,36.619 288.583,34.652 300,34.469Z" style="fill:rgb(24,183,190);stroke:rgb(7,42,64);stroke-width:12.01px;"/>
        </g>
        <g transform="matrix(0.599461,1.11022e-16,0,0.552726,446.657,-76.5226)">
            <path d="M104.386,246C104.386,244.224 103.057,242.782 101.419,242.782L84.186,242.782C82.548,242.782 81.219,244.224 81.219,246L81.219,252.435C81.219,254.211 82.548,255.653 84.186,255.653L101.419,255.653C103.057,255.653 104.386,254.211 104.386,252.435L104.386,246Z" style="fill:rgb(235,235,235);stroke:rgb(7,42,64);stroke-width:3.47px;"/>
        </g>
        <g transform="matrix(0.724467,1.11022e-16,-1.11022e-16,0.724467,434.89,-119.902)">
            <path d="M98.875,266.832C99.644,266.601 101.414,277.066 102.617,280.731C103.887,284.601 105.169,286.386 106.077,290.02C107.258,294.741 108.083,309.562 107.909,318.104C107.75,325.884 105.335,336.123 105.032,341.271C104.888,343.713 106.243,353.839 106.697,355.808C107.152,357.776 103.114,357.381 102.617,356.11C101.658,353.659 100.644,345.179 100.944,341.102C101.246,336.982 103.811,323.531 103.876,317.565C103.931,312.531 103.381,295.997 102.617,291.303C102.102,288.147 98.824,279.19 98.521,276.616C98.218,274.041 97.957,267.108 98.875,266.832Z" style="fill:white;"/>
        </g>
        <g transform="matrix(-0.724467,-1.11022e-16,-1.11022e-16,0.724467,569.765,-119.902)">
            <path d="M98.875,266.832C99.644,266.601 101.414,277.066 102.617,280.731C103.887,284.601 105.169,286.386 106.077,290.02C107.258,294.741 108.083,309.562 107.909,318.104C107.75,325.884 105.335,336.123 105.032,341.271C104.888,343.713 106.243,353.839 106.697,355.808C107.152,357.776 103.114,357.381 102.617,356.11C101.658,353.659 100.644,345.179 100.944,341.102C101.246,336.982 103.811,323.531 103.876,317.565C103.931,312.531 103.381,295.997 102.617,291.303C102.102,288.147 98.824,279.19 98.521,276.616C98.218,274.041 97.957,267.108 98.875,266.832Z" style="fill:rgb(23,140,164);"/>
        </g>
        <path d="M502.988,291.487C519.458,280.237 538.311,267.759 545.125,262.496C546.758,261.234 545.097,257.832 546.676,256.503C550.125,253.601 560.821,245.905 565.817,245.084C569.971,244.401 576.978,248.347 576.652,251.576C576.327,254.804 568.215,261.902 563.864,264.456C559.973,266.741 554.31,264.409 550.551,266.903C542.364,272.335 523.721,287.626 508.025,299.954C506.106,297.299 504.417,294.467 502.988,291.487Z" style="fill:rgb(24,183,190);stroke:rgb(7,42,64);stroke-width:2px;"/>
        <path d="M497.673,270.733C503.147,266.98 507.645,263.824 510.306,261.768C511.939,260.507 510.279,257.104 511.858,255.776C515.306,252.874 526.002,245.178 530.998,244.356C535.153,243.673 542.159,247.619 541.834,250.848C541.508,254.077 533.396,261.174 529.046,263.729C525.155,266.014 519.492,263.681 515.732,266.176C511.902,268.717 505.782,273.417 498.748,278.961C498.19,276.285 497.827,273.537 497.673,270.733Z" style="fill:rgb(24,183,190);stroke:rgb(7,42,64);stroke-width:2px;"/>
        <path d="M524.775,315.228C535.466,307.995 545.037,301.49 549.482,298.056C551.115,296.795 549.455,293.393 551.034,292.064C554.482,289.162 565.178,281.466 570.174,280.645C574.329,279.962 581.335,283.907 581.01,287.136C580.684,290.365 572.572,297.462 568.222,300.017C564.331,302.302 558.668,299.969 554.908,302.464C550.198,305.589 542.026,311.978 532.95,319.186C530.105,318.089 527.373,316.762 524.775,315.228Z" style="fill:rgb(24,183,190);stroke:rgb(7,42,64);stroke-width:2px;"/>
        <g transform="matrix(0.861902,0,0,0.861902,154.841,34.0236)">
            <path d="M457.922,261.057L457.379,247.18L478.001,232.982L486.839,235.861L486.762,250.936L467.613,265.079L457.922,261.057Z" style="fill:white;stroke:rgb(7,42,64);stroke-width:2.32px;"/>
        </g>
        <g transform="matrix(0.861902,0,0,0.861902,120.023,33.2961)">
            <path d="M457.922,261.057L457.379,247.18L478.001,232.982L486.839,235.861L486.762,250.936L467.613,265.079L457.922,261.057Z" style="fill:white;stroke:rgb(7,42,64);stroke-width:2.32px;"/>
        </g>
        <g transform="matrix(0.861902,0,0,0.861902,159.199,69.5842)">
            <path d="M457.922,261.057L457.379,247.18L478.001,232.982L486.839,235.861L486.762,250.936L467.613,265.079L457.922,261.057Z" style="fill:white;stroke:rgb(7,42,64);stroke-width:2.32px;"/>
        </g>
        <g transform="matrix(0.861902,0,0,0.861902,154.841,34.0236)">
            <path d="M457.379,247.352L467.248,250.819L486.839,236.741" style="fill:none;stroke:rgb(7,42,64);stroke-width:2.32px;"/>
        </g>
        <g transform="matrix(0.861902,0,0,0.861902,120.023,33.2961)">
            <path d="M457.379,247.352L467.248,250.819L486.839,236.741" style="fill:none;stroke:rgb(7,42,64);stroke-width:2.32px;"/>
        </g>
        <g transform="matrix(0.861902,0,0,0.861902,159.199,69.5842)">
            <path d="M457.379,247.352L467.248,250.819L486.839,236.741" style="fill:none;stroke:rgb(7,42,64);stroke-width:2.32px;"/>
        </g>
        <g transform="matrix(0.861902,0,0,0.861902,154.841,34.0236)">
            <path d="M467.205,250.819L467.701,265.079" style="fill:none;stroke:rgb(7,42,64);stroke-width:2.32px;"/>
        </g>
        <g transform="matrix(0.861902,0,0,0.861902,120.023,33.2961)">
            <path d="M467.205,250.819L467.701,265.079" style="fill:none;stroke:rgb(7,42,64);stroke-width:2.32px;"/>
        </g>
        <g transform="matrix(0.861902,0,0,0.861902,159.199,69.5842)">
            <path d="M467.205,250.819L467.701,265.079" style="fill:none;stroke:rgb(7,42,64);stroke-width:2.32px;"/>
        </g>
        <g transform="matrix(9.54802,0,0,9.54802,-627.403,-1674.4)">
            <circle cx="73.334" cy="186.469" r="5.781" style="fill:none;stroke:rgb(7,42,64);stroke-width:0.42px;"/>
        </g>
        <g transform="matrix(9.54802,0,0,9.54802,-197.403,-1674.4)">
            <circle cx="73.334" cy="186.469" r="5.781" style="fill:none;stroke:rgb(7,42,64);stroke-width:0.42px;"/>
        </g>
        <g transform="matrix(9.54802,0,0,9.54802,-447.403,-1513.23)">
            <circle cx="73.334" cy="186.469" r="5.781" style="fill:none;stroke:rgb(7,42,64);stroke-width:0.42px;"/>
        </g>
        <g transform="matrix(9.54802,0,0,9.54802,-147.403,-1512.75)">
            <circle cx="73.334" cy="186.469" r="5.781" style="fill:none;stroke:rgb(7,42,64);stroke-width:0.42px;"/>
        </g>
        <g transform="matrix(1,0,0,0.497663,37.1772,150.764)">
            <path d="M35.612,20.988L35.612,72.003" style="fill:none;stroke:rgb(7,42,64);stroke-width:5.06px;"/>
        </g>
        <g transform="matrix(1.03808,0,0,1,53.2707,97.5942)">
            <path d="M0,89.003L500,89.003" style="fill:none;stroke:rgb(7,42,64);stroke-width:3.92px;"/>
        </g>
        <g transform="matrix(1,0,0,0.497663,217.177,176.153)">
            <path d="M35.612,20.988L35.612,72.003" style="fill:none;stroke:rgb(7,42,64);stroke-width:5.06px;"/>
        </g>
        <g transform="matrix(1,0,0,0.497663,467.177,150.764)">
            <path d="M35.612,20.988L35.612,72.003" style="fill:none;stroke:rgb(7,42,64);stroke-width:5.06px;"/>
        </g>
        <g transform="matrix(1,0,0,0.497663,517.177,176.391)">
            <path d="M35.612,20.988L35.612,72.003" style="fill:none;stroke:rgb(7,42,64);stroke-width:5.06px;"/>
        </g>
        <g transform="matrix(1,0,0,1,-0.544175,0.128354)">
            <circle cx="73.334" cy="186.469" r="5.781" style="fill:white;stroke:rgb(7,42,64);stroke-width:4px;"/>
        </g>
        <g transform="matrix(1,0,0,1,179.456,0.128354)">
            <circle cx="73.334" cy="186.469" r="5.781" style="fill:white;stroke:rgb(7,42,64);stroke-width:4px;"/>
        </g>
        <g transform="matrix(1,0,0,1,429.456,0.366755)">
            <circle cx="73.334" cy="186.469" r="5.781" style="fill:white;stroke:rgb(7,42,64);stroke-width:4px;"/>
        </g>
        <g transform="matrix(1,0,0,1,479.456,0.366755)">
            <circle cx="73.334" cy="186.469" r="5.781" style="fill:white;stroke:rgb(7,42,64);stroke-width:4px;"/>
        </g>
    </g>
</svg>
